<?xml version="1.0" encoding="UTF-8"?>
<svg width="149px" height="108px" viewBox="0 0 149 108" version="1.1" xmlns="http://www.w3.org/2000/svg" xmlns:xlink="http://www.w3.org/1999/xlink">
    <!-- Generator: Sketch 54.1 (76490) - https://sketchapp.com -->
    <title>Group 116</title>
    <desc>Created with Sketch.</desc>
    <defs>
        <polygon id="path-1" points="0.0893181818 0.05661875 148.955114 0.05661875 148.955114 60.7696187 0.0893181818 60.7696187"></polygon>
        <polygon id="path-3" points="0.755143871 0.409194722 9.4111509 0.409194722 9.4111509 11.921875 0.755143871 11.921875"></polygon>
        <polygon id="path-5" points="0 0.511107813 46.8121023 0.511107813 46.8121023 34.5602412 0 34.5602412"></polygon>
    </defs>
    <g id="Page-1" stroke="none" stroke-width="1" fill="none" fill-rule="evenodd">
        <g id="Landing-Video" transform="translate(-114.000000, -32.000000)">
            <g id="Group-116" transform="translate(114.000000, 32.000000)">
                <g id="Group-3" transform="translate(0.000000, 28.251362)">
                    <mask id="mask-2" fill="white">
                        <use xlink:href="#path-1"></use>
                    </mask>
                    <g id="Clip-2"></g>
                    <path d="M0.0893181818,31.043275 C0.0893181818,40.771525 10.8569318,49.4523531 27.6995455,55.1339781 C33.4336364,40.3883219 47.95125,12.4264156 78.6467045,0.10430625 C77.2813636,0.071946875 75.9057955,0.05661875 74.5234091,0.05661875 C33.4148864,0.05661875 0.0893181818,13.930275 0.0893181818,31.043275 M105.822273,2.92297812 C101.780795,9.59922812 90.2597727,31.8284156 95.5984091,60.7696187 C126.43875,56.985275 148.955795,45.1110875 148.955795,31.043275 C148.955795,18.5866187 131.293295,7.8467125 105.822273,2.92297812" id="Fill-1" fill="#00CC00" mask="url(#mask-2)"></path>
                </g>
                <path d="M88.0482955,31.9116234 L94.2340909,32.9454203 C97.1488636,29.1661859 101.173295,25.7565297 101.173295,25.7565297 C97.0857955,27.3148891 91.5443182,29.9053422 88.0482955,31.9116234" id="Fill-4" fill="#00CC00"></path>
                <path d="M60.8521023,57.6381781 L81.1259659,60.6799594 C82.066875,56.1632719 83.1833523,52.976725 84.466875,49.7680375 L71.1032386,46.8131156 C66.3509659,50.53785 62.5583523,55.0834906 60.8521023,57.6381781" id="Fill-6" fill="#00CC00"></path>
                <path d="M76.0065341,40.3024094 L86.8832386,42.6953 C87.8769886,40.8031281 89.1707386,38.7202062 90.159375,37.1873937 L82.3082386,35.6409562 C80.0803977,37.122675 77.9786932,38.6827375 76.0065341,40.3024094" id="Fill-8" fill="#00CC00"></path>
                <path d="M36.3559091,18.9002594 L40.68375,17.8886031 C40.4195455,17.4577125 40.1314773,16.9348531 39.9064773,16.5278062 C39.4667045,15.7767281 39.0985227,15.0426812 38.7064773,14.3461031 C37.5780682,12.477775 37.4263636,12.2495562 36.8911364,11.2259781 C36.7973864,12.79115 36.6610227,14.7259 36.4939773,16.8326656 L36.5195455,16.7934937 L36.3559091,18.9002594 Z M44.8275,24.9276188 C44.4115909,24.2719156 44.0263636,23.6076969 43.6394318,22.941775 C43.1485227,22.1055406 42.6968182,21.2914469 42.0439773,20.1963375 L36.1275,21.5775719 C35.94,23.7235094 35.7218182,25.7451187 35.5684091,27.1910719 C35.5240909,27.5623531 35.3485227,27.7990875 34.4757955,28.0034625 C34.0104545,28.1124625 32.9843182,28.2214625 32.2632955,28.2265719 C32.2155682,27.7445875 32.2002273,27.2540875 32.2598864,26.947525 C32.4831818,24.5307906 32.8360227,21.2659 33.1956818,18.0299625 C33.7002273,13.8760406 34.1604545,9.6642125 34.365,7.02266562 C34.3871591,6.55941562 34.4025,6.19494687 34.7740909,6.10638437 C34.8064773,6.09957187 34.8593182,6.05529062 34.9138636,6.00930625 C35.0331818,5.94969687 35.1507955,5.88838437 35.3365909,5.84580625 C35.6417045,5.7402125 36.0763636,5.63972812 36.29625,5.58863437 C36.6525,5.5699 36.9678409,5.66186875 37.2439773,5.85943125 C38.4098864,7.75330625 39.7496591,9.96736875 41.09625,12.2120875 C42.2025,13.9884469 44.1644318,17.1749937 45.0507955,18.5766656 L45.0184091,18.581775 C46.0428409,20.14865 46.9121591,21.4890094 47.5786364,22.6454312 C47.8581818,23.1376344 48.1377273,23.6298375 48.4019318,24.0607281 L48.4496591,24.1169313 C48.4769318,24.2412594 48.4053409,24.3570719 48.33375,24.4711813 C47.9348864,24.7283531 46.9973864,25.0791969 46.4382955,25.2103375 C45.97125,25.3193375 45.5740909,25.3142281 44.9042045,24.9770094 L44.8275,24.9276188 Z" id="Fill-10" fill="#155471"></path>
                <path d="M53.3764773,4.25082969 L55.3332955,18.2420016 C55.5821591,20.0149547 55.7918182,21.2769703 55.9622727,22.2511578 C55.5156818,22.7672047 54.9855682,22.9051578 52.9895455,23.1844703 C52.6759091,22.7774234 52.4832955,22.3192828 52.4031818,21.7487359 L50.0168182,4.72089219 L46.3111364,5.23864219 C45.8372727,5.30506406 45.2952273,5.34934531 44.7105682,5.33401719 C44.6117045,5.08876719 44.6031818,5.02575156 44.5861364,4.89972031 C44.5281818,4.48756406 44.5656818,3.83867344 44.6713636,3.43503281 C44.7310227,3.16764219 44.9202273,2.91557969 45.0565909,2.73504844 L45.5014773,2.67373594 C45.6259091,2.65670469 45.8219318,2.66011094 45.9804545,2.63967344 C46.6810227,2.57325156 47.5367045,2.45232969 48.7401136,2.28712656 L58.6247727,0.902485937 C58.7270455,1.63312656 58.7168182,2.24795469 58.6605682,2.77081406 C58.5975,3.26301719 58.0247727,3.53722031 57.8440909,3.62748594 L53.3764773,4.25082969 Z" id="Fill-12" fill="#155471"></path>
                <path d="M65.3964205,0.49526875 C65.6521023,1.0232375 65.7526705,1.62614375 65.8242614,2.80640937 L66.7975568,19.0133469 C67.5373295,19.0320812 68.5600568,19.0031281 69.5197159,18.9452219 C70.6361932,18.8788 71.9776705,18.79705 73.4691477,18.5807531 C73.5765341,19.2773312 73.5901705,19.5021438 73.6072159,19.7882687 C73.5424432,20.3349719 73.235625,21.0588 72.448125,21.2989406 C71.8430114,21.3670656 70.7913068,21.4624406 69.260625,21.5544094 C67.1503977,21.6804406 65.0060795,21.7145031 63.7549432,21.6923625 C63.7072159,21.4079406 63.6219886,21.0605031 63.5725568,20.7743781 C63.5248295,20.5223156 63.4753977,20.2378937 63.3952841,19.9858313 L62.4714205,4.60831562 C62.379375,3.10956563 62.285625,2.02637812 62.2055114,1.26337812 C62.5890341,0.6962375 63.2503977,0.527628125 65.1032386,0.416925 L65.3964205,0.49526875 Z" id="Fill-14" fill="#155471"></path>
                <path d="M82.5668182,12.9061109 L87.0105682,13.0151109 C86.8639773,12.5331266 86.7190909,11.9540641 86.6014773,11.5044391 C86.36625,10.6665016 86.1940909,9.86262656 85.9895455,9.09111094 C85.3707955,6.99626719 85.2804545,6.73909531 85.0196591,5.61332969 C84.5355682,7.10526719 83.9134091,8.94293906 83.2247727,10.9390016 L83.2554545,10.9083453 L82.5668182,12.9061109 Z M89.2486364,20.8716266 C89.01,20.1307672 88.8054545,19.3916109 88.6009091,18.6490484 C88.335,17.7157359 88.0997727,16.8147828 87.7486364,15.5902359 L81.6719318,15.4403609 C80.9509091,17.4704859 80.2315909,19.3711734 79.7185227,20.7319703 C79.5804545,21.0811109 79.3520455,21.2650484 78.4571591,21.2446109 C77.9781818,21.2326891 76.9571591,21.0794078 76.2565909,20.9005797 C76.3332955,20.4237047 76.4406818,19.9468297 76.5753409,19.6624078 C77.4003409,17.3802203 78.5645455,14.3094859 79.72875,11.2677047 C81.2645455,7.37436094 82.7696591,3.41629844 83.6321591,0.911001562 C83.7719318,0.466485937 83.8776136,0.119048437 84.2594318,0.127564062 C84.2935227,0.127564062 84.3565909,0.0969078125 84.4213636,0.0679546875 C84.5492045,0.0390015625 84.67875,0.0100484375 84.8713636,0.0151578125 C85.1901136,-0.0086859375 85.6384091,0.0015328125 85.8651136,0.0083453125 C86.2145455,0.0815796875 86.4992045,0.248485937 86.7139773,0.509064062 C87.3651136,2.63626719 88.1048864,5.11431406 88.84125,7.62472031 C89.4651136,9.62418906 90.5594318,13.2007516 91.0639773,14.7795484 L91.0315909,14.7795484 C91.6264773,16.5507984 92.1327273,18.0648766 92.4855682,19.3524391 C92.6321591,19.9008453 92.77875,20.4475484 92.9270455,20.9312359 L92.9577273,20.9959547 C92.9543182,21.1236891 92.8554545,21.2173609 92.7582955,21.3110328 C92.3048864,21.4592047 91.3111364,21.5613922 90.735,21.5477672 C90.2560227,21.5341422 89.8759091,21.4302516 89.31,20.9380484 L89.2486364,20.8716266 Z" id="Fill-16" fill="#155471"></path>
                <path d="M106.380511,12.1410672 C106.94642,13.6994266 107.473125,15.3173953 107.92483,16.7650516 C108.050966,15.3293172 108.282784,13.3622078 108.477102,11.9043328 L109.49983,4.27092656 C109.602102,3.51133281 109.76233,3.01572344 110.048693,2.57120781 C110.841307,2.19141094 111.062898,2.22206719 113.093011,2.49286406 C112.810057,4.35778594 112.469148,6.66552031 112.14017,9.13675469 L110.270284,23.1057859 C110.130511,23.1841297 109.235625,23.6150203 108.504375,23.5179422 C108.219716,23.4787703 107.462898,23.3459266 107.012898,23.0921609 C106.397557,21.4282078 105.63733,19.6177859 104.856648,17.7409422 L104.853239,17.7733016 C104.440739,16.7497234 104.00608,15.6597234 103.568011,14.6020828 L102.613466,12.0882703 C102.294716,11.0783172 101.92483,9.99683281 101.58733,8.88809844 C101.45267,8.45209844 101.30267,7.88325469 101.162898,7.47791094 C101.135625,7.44214531 101.111761,7.37402031 101.086193,7.33825469 C100.925966,9.25256719 100.699261,11.1873172 100.549261,12.5549266 L99.560625,19.9362703 C99.4515341,20.7588797 99.3015341,21.1591141 99.0509659,21.5780828 C98.4714205,22.0464422 97.9600568,22.0106766 95.9316477,21.7415828 C96.204375,19.9379734 96.541875,17.6625984 96.8759659,15.1590047 L98.6572159,1.85589531 C98.5242614,1.64470781 98.3435795,1.29727031 98.3521023,1.23255156 C98.3521023,1.23255156 98.3691477,1.10652031 98.4577841,0.924285937 C98.9708523,0.702879687 100.378807,0.796551562 100.919148,0.868082812 C101.234489,0.908957812 101.66233,1.09630156 102.100398,1.44373906 C102.587898,2.86584844 103.400966,4.74609844 104.278807,6.86137969 C104.524261,7.44214531 104.73733,8.01950469 104.955511,8.56450469 C105.144716,9.07373906 105.369716,9.55572344 105.593011,10.0683641 L106.380511,12.1410672 Z" id="Fill-18" fill="#155471"></path>
                <path d="M124.05017,8.81299062 L120.344489,22.4448031 C119.875739,24.1717719 119.570625,25.41335 119.340511,26.3773187 C118.730284,26.6736625 118.189943,26.5953187 116.243352,26.06735 C116.113807,25.5683344 116.117216,25.0710219 116.267216,24.5175063 L120.777443,7.92395937 L117.167216,6.94295937 C116.70358,6.81692813 116.188807,6.6449125 115.656989,6.40136563 C115.663807,6.13908437 115.679148,6.07606875 115.713239,5.95174062 C115.82233,5.55150625 116.112102,4.9690375 116.367784,4.64033437 C116.528011,4.41892813 116.802443,4.2605375 116.998466,4.14983437 L117.429716,4.26735 C117.554148,4.29970937 117.73142,4.37975625 117.886534,4.4240375 C118.554716,4.63692813 119.389943,4.86514688 120.560966,5.18192813 L130.193352,7.796225 C129.999034,8.504725 129.748466,9.06675625 129.49108,9.5266 C129.242216,9.95408437 128.60642,9.98133437 128.40358,9.99325625 L124.05017,8.81299062 Z" id="Fill-20" fill="#155471"></path>
                <path d="M129.568295,27.7403297 C130.093295,28.0554078 130.877386,28.4164703 131.658068,28.7826422 C132.818864,29.3208297 134.559205,30.1281109 135.762614,30.6509703 C134.833636,32.1940016 134.325682,32.5244078 133.478523,32.3762359 C132.73875,32.0679703 131.623977,31.5842828 130.028523,30.8434234 C128.288182,30.0378453 126.748977,29.2510016 125.673409,28.6089234 C125.772273,28.1627047 125.903523,27.6585797 126.019432,27.2549391 L132.409773,13.5175328 C132.991023,12.2725484 133.570568,11.0258609 134.05125,9.83878281 C134.250682,9.86092344 134.998977,9.92564219 134.998977,9.92564219 C135.200114,9.94948594 135.426818,9.91372031 136.02,10.1538609 L143.242159,13.5090172 C142.427386,15.0333141 142.066023,15.3569078 141.450682,15.3194391 C140.540455,15.0741891 139.698409,14.6824703 138.624545,14.1851578 L136.362614,13.1326266 L133.775114,18.6967359 L139.112045,21.1764859 C137.920568,23.1265641 137.511477,23.2525953 136.611477,22.8336266 L132.696136,21.0163922 L129.568295,27.7403297 Z" id="Fill-22" fill="#155471"></path>
                <path d="M17.1615341,87.7221781 C16.9211932,87.5552719 16.6399432,87.4071 16.3160795,87.2810687 C16.0978977,87.1942094 15.864375,87.1039437 15.6905114,87.0511469 L12.5848295,94.9127719 C12.8353977,95.0473187 13.1541477,95.1920844 13.4967614,95.3266312 C14.7189205,95.8086156 16.3228977,95.5991312 17.7530114,91.9765844 C18.658125,89.6875844 18.3922159,88.4579281 17.1615341,87.7221781 L17.1615341,87.7221781 Z M14.7905114,85.4263656 C15.1978977,85.5353656 16.2189205,85.8470375 17.008125,86.1587094 C20.5092614,87.5399437 20.6439205,89.9158031 19.5496023,92.6867875 C18.7177841,94.79185 17.7359659,96.1032562 16.3058523,96.6840219 C15.076875,97.1660062 13.8121023,96.8815844 12.9598295,96.5460687 C12.0478977,96.1867094 11.3115341,95.8222406 10.4882386,95.3726156 L14.026875,86.412475 C14.2655114,85.8095687 14.3814205,85.6051937 14.6711932,85.4161469 L14.7905114,85.4263656 Z" id="Fill-24" fill="#155471"></path>
                <path d="M17.1615341,87.7221781 C16.9211932,87.5552719 16.6399432,87.4071 16.3160795,87.2810687 C16.0978977,87.1942094 15.864375,87.1039437 15.6905114,87.0511469 L12.5848295,94.9127719 C12.8353977,95.0473187 13.1541477,95.1920844 13.4967614,95.3266312 C14.7189205,95.8086156 16.3228977,95.5991312 17.7530114,91.9765844 C18.658125,89.6875844 18.3922159,88.4579281 17.1615341,87.7221781 L17.1615341,87.7221781 Z M14.7905114,85.4263656 C15.1978977,85.5353656 16.2189205,85.8470375 17.008125,86.1587094 C20.5092614,87.5399437 20.6439205,89.9158031 19.5496023,92.6867875 C18.7177841,94.79185 17.7359659,96.1032562 16.3058523,96.6840219 C15.076875,97.1660062 13.8121023,96.8815844 12.9598295,96.5460687 C12.0478977,96.1867094 11.3115341,95.8222406 10.4882386,95.3726156 L14.026875,86.412475 C14.2655114,85.8095687 14.3814205,85.6051937 14.6711932,85.4161469 L14.7905114,85.4263656 Z" id="Fill-26" fill="#155471"></path>
                <path d="M22.7911364,98.5080688 C23.0843182,98.6306938 23.5155682,98.7584281 23.9468182,98.8878656 C24.5843182,99.0769125 25.5405682,99.3613344 26.2019318,99.5418656 C25.8388636,100.40535 25.6036364,100.613131 25.1570455,100.601209 C24.7513636,100.499022 24.1411364,100.333819 23.2615909,100.073241 C22.3053409,99.7888188 21.4530682,99.4992875 20.8496591,99.2506312 C20.8684091,99.0138969 20.8973864,98.7448031 20.9263636,98.5268031 L23.1797727,90.9683344 C23.3843182,90.2836781 23.5871591,89.600725 23.7456818,88.9518344 C23.8496591,88.946725 24.24,88.9245844 24.24,88.9245844 C24.3439773,88.9211781 24.4598864,88.8854125 24.78375,88.9654594 L28.7553409,90.1474281 C28.4519318,90.9938813 28.2917045,91.1897406 27.9678409,91.2152875 C27.4820455,91.1590844 27.0184091,91.0194281 26.4303409,90.8423031 L25.1843182,90.472725 L24.2723864,93.5349437 L27.2093182,94.4069437 C26.7439773,95.5020531 26.5411364,95.5974281 26.0485227,95.4509594 L23.8922727,94.8105844 L22.7911364,98.5080688 Z" id="Fill-28" fill="#155471"></path>
                <path d="M22.7911364,98.5080688 C23.0843182,98.6306938 23.5155682,98.7584281 23.9468182,98.8878656 C24.5843182,99.0769125 25.5405682,99.3613344 26.2019318,99.5418656 C25.8388636,100.40535 25.6036364,100.613131 25.1570455,100.601209 C24.7513636,100.499022 24.1411364,100.333819 23.2615909,100.073241 C22.3053409,99.7888188 21.4530682,99.4992875 20.8496591,99.2506312 C20.8684091,99.0138969 20.8973864,98.7448031 20.9263636,98.5268031 L23.1797727,90.9683344 C23.3843182,90.2836781 23.5871591,89.600725 23.7456818,88.9518344 C23.8496591,88.946725 24.24,88.9245844 24.24,88.9245844 C24.3439773,88.9211781 24.4598864,88.8854125 24.78375,88.9654594 L28.7553409,90.1474281 C28.4519318,90.9938813 28.2917045,91.1897406 27.9678409,91.2152875 C27.4820455,91.1590844 27.0184091,91.0194281 26.4303409,90.8423031 L25.1843182,90.472725 L24.2723864,93.5349437 L27.2093182,94.4069437 C26.7439773,95.5020531 26.5411364,95.5974281 26.0485227,95.4509594 L23.8922727,94.8105844 L22.7911364,98.5080688 Z" id="Fill-30" fill="#155471"></path>
                <path d="M32.6805682,91.1434156 C32.7282955,91.4448687 32.6890909,91.7582438 32.5476136,92.3577437 L30.6095455,100.583838 C30.9743182,100.704759 31.4890909,100.841009 31.9765909,100.956822 C32.5425,101.089666 33.2226136,101.251463 33.9998864,101.363869 C33.94875,101.728338 33.9214773,101.840744 33.8873864,101.987213 C33.7748864,102.249494 33.5123864,102.564572 33.0828409,102.567978 C32.7726136,102.511775 32.2339773,102.401072 31.455,102.220541 C30.3845455,101.966775 29.3106818,101.663619 28.6919318,101.467759 C28.7106818,101.316181 28.7192045,101.130541 28.7379545,100.980666 C28.7498864,100.847822 28.7703409,100.697947 28.7669318,100.561697 L30.6061364,92.756275 C30.7851136,91.9949781 30.8976136,91.4397594 30.9743182,91.0463375 C31.2504545,90.8232281 31.605,90.8368531 32.5459091,91.0582594 L32.6805682,91.1434156 Z" id="Fill-32" fill="#155471"></path>
                <path d="M32.6805682,91.1434156 C32.7282955,91.4448687 32.6890909,91.7582438 32.5476136,92.3577437 L30.6095455,100.583838 C30.9743182,100.704759 31.4890909,100.841009 31.9765909,100.956822 C32.5425,101.089666 33.2226136,101.251463 33.9998864,101.363869 C33.94875,101.728338 33.9214773,101.840744 33.8873864,101.987213 C33.7748864,102.249494 33.5123864,102.564572 33.0828409,102.567978 C32.7726136,102.511775 32.2339773,102.401072 31.455,102.220541 C30.3845455,101.966775 29.3106818,101.663619 28.6919318,101.467759 C28.7106818,101.316181 28.7192045,101.130541 28.7379545,100.980666 C28.7498864,100.847822 28.7703409,100.697947 28.7669318,100.561697 L30.6061364,92.756275 C30.7851136,91.9949781 30.8976136,91.4397594 30.9743182,91.0463375 C31.2504545,90.8232281 31.605,90.8368531 32.5459091,91.0582594 L32.6805682,91.1434156 Z" id="Fill-34" fill="#155471"></path>
                <path d="M39.928125,92.6936 C39.9928977,92.99335 39.9673295,93.3084281 39.8565341,93.9147406 L38.3224432,102.227694 C38.690625,102.328178 39.2122159,102.440584 39.703125,102.53085 C40.2775568,102.636444 40.9644886,102.764178 41.746875,102.840819 C41.7144886,103.206991 41.6923295,103.3211 41.6650568,103.469272 C41.5644886,103.736662 41.3173295,104.063662 40.8894886,104.085803 C40.5758523,104.044928 40.0338068,103.961475 39.2480114,103.816709 C38.1673295,103.619147 37.078125,103.368787 36.4491477,103.200178 C36.4610795,103.050303 36.4610795,102.864662 36.4713068,102.714787 C36.4798295,102.580241 36.4883523,102.428663 36.4815341,102.292412 L37.9372159,94.4069437 C38.0786932,93.6388344 38.165625,93.0802094 38.221875,92.6833812 C38.484375,92.4449437 38.8423295,92.4432406 39.7917614,92.6169594 L39.928125,92.6936 Z" id="Fill-36" fill="#155471"></path>
                <path d="M39.928125,92.6936 C39.9928977,92.99335 39.9673295,93.3084281 39.8565341,93.9147406 L38.3224432,102.227694 C38.690625,102.328178 39.2122159,102.440584 39.703125,102.53085 C40.2775568,102.636444 40.9644886,102.764178 41.746875,102.840819 C41.7144886,103.206991 41.6923295,103.3211 41.6650568,103.469272 C41.5644886,103.736662 41.3173295,104.063662 40.8894886,104.085803 C40.5758523,104.044928 40.0338068,103.961475 39.2480114,103.816709 C38.1673295,103.619147 37.078125,103.368787 36.4491477,103.200178 C36.4610795,103.050303 36.4610795,102.864662 36.4713068,102.714787 C36.4798295,102.580241 36.4883523,102.428663 36.4815341,102.292412 L37.9372159,94.4069437 C38.0786932,93.6388344 38.165625,93.0802094 38.221875,92.6833812 C38.484375,92.4449437 38.8423295,92.4432406 39.7917614,92.6169594 L39.928125,92.6936 Z" id="Fill-38" fill="#155471"></path>
                <path d="M46.0022727,103.527689 C46.3107955,103.60433 46.7556818,103.669048 47.2022727,103.728658 C47.8619318,103.82233 48.8505682,103.960283 49.5272727,104.042033 C49.2988636,104.949798 49.0960227,105.189939 48.6528409,105.246142 C48.2386364,105.200158 47.6079545,105.13033 46.7011364,105.002595 C45.7125,104.864642 44.8278409,104.706252 44.1920455,104.551267 C44.1767045,104.31283 44.1647727,104.042033 44.1613636,103.82233 L45.2607955,96.0152047 C45.3613636,95.3050016 45.4619318,94.5965016 45.5232955,93.9339859 C45.6238636,93.9135484 46.0056818,93.8352047 46.0056818,93.8352047 C46.1096591,93.8147672 46.2170455,93.7653766 46.5494318,93.7926266 L50.6539773,94.3699859 C50.4801136,95.2539078 50.3488636,95.4702047 50.0352273,95.5451422 C49.5460227,95.5587672 49.06875,95.4906422 48.4568182,95.4054859 L47.1732955,95.2249547 L46.7267045,98.3876578 L49.7607955,98.8151422 C49.4625,99.9647516 49.2767045,100.08908 48.7653409,100.017548 L46.5392045,99.7058766 L46.0022727,103.527689 Z" id="Fill-40" fill="#155471"></path>
                <path d="M57.5960795,95.6756016 L57.6114205,95.4593047 C57.6182386,95.3741484 57.6114205,95.2583359 57.6182386,95.1748828 C57.7392614,95.1016484 57.9625568,95.0522578 58.2455114,95.0573672 C58.7619886,95.0658828 59.3585795,95.0948359 59.956875,95.1425234 C62.2477841,95.3196484 63.5500568,96.3926172 63.3557386,98.8791797 C63.1665341,101.282289 61.4466477,101.932883 60.2722159,101.992492 C59.825625,101.956727 59.2290341,101.87668 59.2869886,101.129008 C59.2972159,101.013195 59.5051705,100.912711 59.7046023,100.929742 C60.4171023,100.984242 61.325625,100.471602 61.4671023,98.6645859 C61.5898295,97.1368828 60.8824432,96.5493047 59.9705114,96.4794766 C59.7046023,96.4573359 59.488125,96.4386016 59.3227841,96.4437109 L58.7602841,103.607055 L58.6324432,105.432805 C58.6102841,105.717227 58.5472159,105.90968 58.3801705,106.098727 C58.1671023,106.282664 57.8841477,106.260523 57.219375,106.207727 L56.7727841,106.173664 C56.8614205,105.22843 56.9705114,104.05157 57.0727841,102.741867 L57.5960795,95.6756016 Z" id="Fill-42" fill="#155471"></path>
                <path d="M69.6196023,99.0053812 C69.6707386,97.7263344 69.084375,97.0518969 68.2014205,97.0178344 C67.9184659,97.0059125 67.6661932,97.012725 67.4855114,97.0212406 L67.3184659,101.078084 L67.9832386,101.101928 C68.2167614,101.112147 68.4485795,101.122366 68.6002841,101.062756 C69.0911932,100.899256 69.5667614,100.284428 69.6196023,99.0053812 L69.6196023,99.0053812 Z M72.2872159,106.689881 C72.5701705,107.102037 71.3036932,107.083303 71.3036932,107.083303 L71.0735795,107.074787 C70.4088068,106.979412 70.0866477,106.301569 69.8769886,105.759975 C69.4644886,104.794303 68.7571023,103.368787 67.9985795,102.403116 C67.9474432,102.399709 67.8809659,102.380975 67.8298295,102.379272 L67.265625,102.357131 L67.1190341,105.981381 C67.1071023,106.247069 67.0661932,106.442928 66.9076705,106.637084 C66.7167614,106.846569 66.3673295,106.832944 65.6190341,106.800584 L65.2849432,106.786959 C65.3411932,105.822991 65.4042614,104.646131 65.4605114,103.350053 L65.6838068,97.8131937 C65.709375,97.2153969 65.728125,96.7334125 65.7315341,96.2667563 C65.7349432,96.1850063 65.7417614,96.0504594 65.7622159,95.9346469 C65.8985795,95.8426781 66.0178977,95.8290531 66.2497159,95.7881781 C66.2838068,95.7881781 66.3349432,95.7762563 66.3519886,95.7762563 C66.403125,95.7609281 66.5019886,95.7660375 66.5872159,95.7524125 L66.6860795,95.7558188 C66.8855114,95.7473031 67.1360795,95.7421937 67.3355114,95.7507094 L68.1349432,95.7813656 C68.2661932,95.7881781 68.4502841,95.8120219 68.5832386,95.8171313 C70.5741477,96.0146937 71.5678977,97.0059125 71.4809659,99.1160844 C71.4264205,100.478584 70.2605114,101.663959 69.796875,101.992662 C70.4088068,102.949819 70.8963068,104.038116 71.3275568,104.920334 C71.7588068,105.787225 72.0809659,106.465069 72.271875,106.674553 L72.2872159,106.689881 Z" id="Fill-44" fill="#155471"></path>
                <g id="Group-48" transform="translate(73.295455, 95.376362)">
                    <mask id="mask-4" fill="white">
                        <use xlink:href="#path-3"></use>
                    </mask>
                    <g id="Clip-47"></g>
                    <path d="M2.66948864,6.29185469 C2.683125,9.17013594 3.70414773,10.5479641 5.13596591,10.5394484 C6.65130682,10.5326359 7.54448864,9.14799531 7.53255682,6.10451094 C7.51551136,3.06102656 6.44505682,1.76665156 5.045625,1.77516719 C3.61551136,1.78197969 2.65414773,3.16491719 2.66948864,6.29185469 M5.10698864,0.409260938 C8.03539773,0.395635938 9.39392045,2.48537031 9.41096591,6.04490156 C9.42971591,9.75430781 8.02346591,11.9070578 5.06096591,11.9223859 C1.99619318,11.9343078 0.772329545,9.74579219 0.755284091,6.21862031 C0.738238636,2.41043281 2.27573864,0.422885938 5.10698864,0.409260938" id="Fill-46" fill="#155471" mask="url(#mask-4)"></path>
                </g>
                <path d="M85.6280114,106.754259 L85.183125,98.0325562 C85.145625,97.3002125 85.1013068,96.7535094 85.0569886,96.2238375 C85.1388068,96.1676344 85.3007386,96.0620406 85.2836932,96.0773688 C85.4626705,96.0041344 85.7234659,95.8746969 86.0899432,95.8389313 L90.3461932,95.6209312 C90.3257386,96.5542437 90.2200568,96.7603219 89.9098295,96.8761344 C89.6797159,96.9544781 89.3797159,96.9698063 88.8478977,96.9970562 L86.9183523,97.0958375 L87.0922159,100.483353 L90.2183523,100.326666 C90.2098295,101.491603 89.9865341,101.668728 89.4717614,101.694275 L87.1586932,101.815197 C87.2507386,103.591556 87.3461932,105.134588 87.4058523,106.646963 C87.2422159,106.7219 86.9013068,106.890509 86.5024432,106.910947 C86.1871023,106.926275 85.8990341,106.890509 85.6280114,106.754259" id="Fill-49" fill="#155471"></path>
                <path d="M95.1028977,104.972961 C95.4216477,104.97807 95.8682386,104.937195 96.3165341,104.892914 C96.9813068,104.831602 97.9750568,104.739633 98.6517614,104.659586 C98.6398295,105.594602 98.4983523,105.87732 98.0773295,106.032305 C97.6665341,106.086805 97.0375568,106.163445 96.125625,106.248602 C95.131875,106.34057 94.231875,106.389961 93.5790341,106.384852 C93.5074432,106.156633 93.4341477,105.896055 93.3796023,105.684867 L92.6483523,97.8351641 C92.581875,97.1215547 92.5153977,96.4096484 92.4216477,95.7505391 C92.5153977,95.7079609 92.8682386,95.5410547 92.8682386,95.5410547 C92.9671023,95.4984766 93.0608523,95.4218359 93.3898295,95.3741484 L97.5165341,94.9909453 C97.5523295,95.8901953 97.4739205,96.1320391 97.1858523,96.2751016 C96.7119886,96.4028359 96.2296023,96.4471172 95.619375,96.5033203 L94.325625,96.6259453 L94.6222159,99.8039766 L97.6716477,99.5212578 C97.6477841,100.708336 97.4977841,100.875242 96.9847159,100.921227 L94.7449432,101.130711 L95.1028977,104.972961 Z" id="Fill-51" fill="#155471"></path>
                <path d="M104.915625,94.5031703 C104.949716,94.7347953 104.891761,95.0430609 104.750284,95.3513266 C104.661648,95.4313734 104.567898,95.4773578 104.451989,95.4943891 C104.319034,95.5131234 104.199716,95.4960922 104.094034,95.4603266 C103.758239,95.3564359 103.298011,95.3053422 102.853125,95.3666547 C101.995739,95.4875766 101.526989,95.9746703 101.639489,96.7836547 L101.671875,96.9965453 C101.796307,97.3984828 102.040057,97.6999359 102.384375,97.9877641 C102.762784,98.3028422 103.344034,98.7252172 103.79233,99.0300766 C103.81108,99.0454047 103.865625,99.0726547 103.86733,99.0879828 C104.240625,99.3383422 104.61392,99.6210609 104.919034,99.8646078 C105.715057,100.491358 106.148011,101.167498 106.277557,102.090592 C106.536648,103.918045 105.55483,105.300983 103.412216,105.604139 C102.27358,105.764233 101.458807,105.578592 101.102557,105.324827 C100.898011,105.186873 100.817898,105.098311 100.797443,104.950139 C100.759943,104.686155 100.90142,104.144561 101.080398,103.749436 C101.687216,104.117311 102.459375,104.328498 103.168466,104.228014 C104.056534,104.101983 104.571307,103.458202 104.431534,102.470389 C104.33608,101.792545 104.001989,101.336108 103.161648,100.751936 C102.950284,100.562889 102.72358,100.392577 102.478125,100.208639 C102.421875,100.166061 102.32983,100.113264 102.237784,100.04003 L102.01108,99.8697172 C101.559375,99.5324984 101.150284,99.2531859 100.838352,98.9619516 C100.178693,98.3334984 99.8940341,97.7510297 99.8088068,97.1413109 C99.6247159,95.8418266 100.313352,94.4146078 102.524148,94.1029359 C103.906534,93.9087797 104.716193,94.2630297 104.915625,94.5031703" id="Fill-53" fill="#155471"></path>
                <path d="M112.442898,93.086 C112.487216,93.3142187 112.448011,93.6258906 112.325284,93.9426719 C112.240057,94.0244219 112.146307,94.0772187 112.033807,94.0993594 C111.902557,94.1249062 111.781534,94.1146875 111.674148,94.0874375 C111.334943,94.0005781 110.869602,93.9750312 110.431534,94.0618906 C109.580966,94.2322031 109.141193,94.7431406 109.298011,95.5419062 L109.34233,95.7530937 C109.48892,96.1499219 109.748011,96.4360469 110.109375,96.7051406 C110.506534,96.9997812 111.108239,97.3863906 111.571875,97.6674062 C111.59233,97.6810312 111.646875,97.704875 111.650284,97.7219062 C112.037216,97.9484219 112.425852,98.2124062 112.744602,98.4372187 C113.573011,99.0179844 114.041761,99.6702812 114.224148,100.583156 C114.583807,102.395281 113.682102,103.831016 111.558239,104.253391 C110.431534,104.474797 109.606534,104.333437 109.238352,104.103516 C109.02358,103.977484 108.940057,103.892328 108.91108,103.744156 C108.858239,103.481875 108.970739,102.933469 109.129261,102.531531 C109.75483,102.863641 110.535511,103.03225 111.237784,102.892594 C112.119034,102.717172 112.596307,102.046141 112.401989,101.066844 C112.26733,100.395812 111.91108,99.9598125 111.038352,99.421625 C110.816761,99.2427969 110.581534,99.0861094 110.327557,98.9175 C110.267898,98.876625 110.174148,98.8289375 110.075284,98.7625156 L109.841761,98.6058281 C109.369602,98.2924531 108.946875,98.0386875 108.621307,97.7644844 C107.925852,97.1717969 107.608807,96.6063594 107.491193,96.0034531 C107.232102,94.7141875 107.84233,93.2546094 110.030966,92.8186094 C111.403125,92.5461094 112.22642,92.8577812 112.442898,93.086" id="Fill-55" fill="#155471"></path>
                <path d="M112.442898,93.086 C112.487216,93.3142187 112.448011,93.6258906 112.325284,93.9426719 C112.240057,94.0244219 112.146307,94.0772187 112.033807,94.0993594 C111.902557,94.1249062 111.781534,94.1146875 111.674148,94.0874375 C111.334943,94.0005781 110.869602,93.9750312 110.431534,94.0618906 C109.580966,94.2322031 109.141193,94.7431406 109.298011,95.5419062 L109.34233,95.7530937 C109.48892,96.1499219 109.748011,96.4360469 110.109375,96.7051406 C110.506534,96.9997812 111.108239,97.3863906 111.571875,97.6674062 C111.59233,97.6810312 111.646875,97.704875 111.650284,97.7219062 C112.037216,97.9484219 112.425852,98.2124062 112.744602,98.4372187 C113.573011,99.0179844 114.041761,99.6702812 114.224148,100.583156 C114.583807,102.395281 113.682102,103.831016 111.558239,104.253391 C110.431534,104.474797 109.606534,104.333437 109.238352,104.103516 C109.02358,103.977484 108.940057,103.892328 108.91108,103.744156 C108.858239,103.481875 108.970739,102.933469 109.129261,102.531531 C109.75483,102.863641 110.535511,103.03225 111.237784,102.892594 C112.119034,102.717172 112.596307,102.046141 112.401989,101.066844 C112.26733,100.395812 111.91108,99.9598125 111.038352,99.421625 C110.816761,99.2427969 110.581534,99.0861094 110.327557,98.9175 C110.267898,98.876625 110.174148,98.8289375 110.075284,98.7625156 L109.841761,98.6058281 C109.369602,98.2924531 108.946875,98.0386875 108.621307,97.7644844 C107.925852,97.1717969 107.608807,96.6063594 107.491193,96.0034531 C107.232102,94.7141875 107.84233,93.2546094 110.030966,92.8186094 C111.403125,92.5461094 112.22642,92.8577812 112.442898,93.086" id="Fill-57" fill="#155471"></path>
                <path d="M117.498239,102.341803 L117.009034,100.424084 C116.772102,99.4890688 116.514716,98.4041781 116.23858,97.3243969 C116.074943,96.6789125 115.895966,96.0385375 115.739148,95.4237094 L115.360739,93.9419906 C115.145966,93.0853187 114.99767,92.5760844 114.94483,92.434725 C115.002784,91.9902094 115.422102,91.8147875 116.277784,91.5967875 C116.552216,91.5269594 116.674943,91.8743969 116.87267,92.6510219 L117.380625,94.6470844 C117.563011,95.3743188 117.741989,96.1356156 117.924375,96.8611469 C118.108466,97.5866781 118.306193,98.2917719 118.473239,98.9542875 L118.877216,100.533084 C119.030625,101.146209 119.155057,101.560069 119.211307,101.786584 L119.267557,102.0131 C119.149943,102.283897 118.740852,102.438881 117.886875,102.656881 C117.690852,102.704569 117.571534,102.631334 117.498239,102.341803" id="Fill-59" fill="#155471"></path>
                <path d="M117.498239,102.341803 L117.009034,100.424084 C116.772102,99.4890688 116.514716,98.4041781 116.23858,97.3243969 C116.074943,96.6789125 115.895966,96.0385375 115.739148,95.4237094 L115.360739,93.9419906 C115.145966,93.0853187 114.99767,92.5760844 114.94483,92.434725 C115.002784,91.9902094 115.422102,91.8147875 116.277784,91.5967875 C116.552216,91.5269594 116.674943,91.8743969 116.87267,92.6510219 L117.380625,94.6470844 C117.563011,95.3743188 117.741989,96.1356156 117.924375,96.8611469 C118.108466,97.5866781 118.306193,98.2917719 118.473239,98.9542875 L118.877216,100.533084 C119.030625,101.146209 119.155057,101.560069 119.211307,101.786584 L119.267557,102.0131 C119.149943,102.283897 118.740852,102.438881 117.886875,102.656881 C117.690852,102.704569 117.571534,102.631334 117.498239,102.341803" id="Fill-61" fill="#155471"></path>
                <path d="M122.666932,95.7089828 C123.601023,98.4305766 125.010682,99.4098734 126.364091,98.9432172 C127.797614,98.4544203 128.198182,96.8568891 127.212955,93.9769047 C126.224318,91.0969203 124.794205,90.2129984 123.473182,90.6677328 C122.118068,91.1309828 121.651023,92.7506547 122.666932,95.7089828 M123.091364,89.3563266 C125.864659,88.4076859 127.819773,89.9507172 128.975455,93.3194984 C130.177159,96.8279359 129.53625,99.3179047 126.732273,100.276764 C123.83625,101.269686 121.973182,99.5869984 120.827727,96.2488734 C119.591932,92.6467641 120.415227,90.2726078 123.091364,89.3563266" id="Fill-63" fill="#155471"></path>
                <path d="M122.666932,95.7089828 C123.601023,98.4305766 125.010682,99.4098734 126.364091,98.9432172 C127.797614,98.4544203 128.198182,96.8568891 127.212955,93.9769047 C126.224318,91.0969203 124.794205,90.2129984 123.473182,90.6677328 C122.118068,91.1309828 121.651023,92.7506547 122.666932,95.7089828 M123.091364,89.3563266 C125.864659,88.4076859 127.819773,89.9507172 128.975455,93.3194984 C130.177159,96.8279359 129.53625,99.3179047 126.732273,100.276764 C123.83625,101.269686 121.973182,99.5869984 120.827727,96.2488734 C119.591932,92.6467641 120.415227,90.2726078 123.091364,89.3563266" id="Fill-65" fill="#155471"></path>
                <path d="M136.478011,89.6182672 C137.195625,90.0985484 137.914943,90.6162984 138.549034,91.0846578 C138.160398,90.4442828 137.652443,89.5467359 137.285966,88.8740016 L135.366648,85.3536422 C135.174034,85.0045016 135.092216,84.7456266 135.07517,84.4731266 C135.291648,84.0694859 135.392216,84.0132828 136.328011,83.5023453 C136.78483,84.3726422 137.352443,85.4490172 137.972898,86.5884078 L141.485966,93.0296266 C141.451875,93.1045641 141.20642,93.5610016 140.86892,93.7432359 C140.739375,93.8147672 140.379716,93.9918922 140.113807,94.0242516 C139.343352,93.5150172 138.467216,92.9870484 137.560398,92.4386422 L137.570625,92.4522672 C137.08142,92.1491109 136.563239,91.8272203 136.05358,91.5155484 L134.879148,90.7542516 C134.435966,90.4272516 133.946761,90.0849234 133.464375,89.7238609 C133.271761,89.5825016 133.03483,89.3883453 132.850739,89.2606109 C132.82858,89.2555016 132.799602,89.2350641 132.775739,89.2282516 C133.299034,90.0798141 133.80017,90.9620328 134.15642,91.5836734 L136.014375,94.9865172 C136.220625,95.3663141 136.27858,95.5809078 136.302443,95.8312672 C136.20358,96.2093609 135.97858,96.3507203 135.04108,96.8599547 C134.603011,96.0203141 134.04392,94.9609703 133.414943,93.8062516 L130.06892,87.6698922 C129.947898,87.6222047 129.765511,87.5319391 129.748466,87.5029859 C129.748466,87.5029859 129.717784,87.4450797 129.69733,87.3394859 C129.845625,87.0908297 130.467784,86.6957047 130.714943,86.5611578 C130.85983,86.4794078 131.098466,86.4266109 131.389943,86.4402359 C132.030852,86.8864547 132.951307,87.4263453 133.970625,88.0445797 C134.251875,88.2148922 134.519489,88.3903141 134.77858,88.5538141 C135.015511,88.7105016 135.257557,88.8416422 135.50983,88.9915172 L136.478011,89.6182672 Z" id="Fill-67" fill="#155471"></path>
                <path d="M136.478011,89.6182672 C137.195625,90.0985484 137.914943,90.6162984 138.549034,91.0846578 C138.160398,90.4442828 137.652443,89.5467359 137.285966,88.8740016 L135.366648,85.3536422 C135.174034,85.0045016 135.092216,84.7456266 135.07517,84.4731266 C135.291648,84.0694859 135.392216,84.0132828 136.328011,83.5023453 C136.78483,84.3726422 137.352443,85.4490172 137.972898,86.5884078 L141.485966,93.0296266 C141.451875,93.1045641 141.20642,93.5610016 140.86892,93.7432359 C140.739375,93.8147672 140.379716,93.9918922 140.113807,94.0242516 C139.343352,93.5150172 138.467216,92.9870484 137.560398,92.4386422 L137.570625,92.4522672 C137.08142,92.1491109 136.563239,91.8272203 136.05358,91.5155484 L134.879148,90.7542516 C134.435966,90.4272516 133.946761,90.0849234 133.464375,89.7238609 C133.271761,89.5825016 133.03483,89.3883453 132.850739,89.2606109 C132.82858,89.2555016 132.799602,89.2350641 132.775739,89.2282516 C133.299034,90.0798141 133.80017,90.9620328 134.15642,91.5836734 L136.014375,94.9865172 C136.220625,95.3663141 136.27858,95.5809078 136.302443,95.8312672 C136.20358,96.2093609 135.97858,96.3507203 135.04108,96.8599547 C134.603011,96.0203141 134.04392,94.9609703 133.414943,93.8062516 L130.06892,87.6698922 C129.947898,87.6222047 129.765511,87.5319391 129.748466,87.5029859 C129.748466,87.5029859 129.717784,87.4450797 129.69733,87.3394859 C129.845625,87.0908297 130.467784,86.6957047 130.714943,86.5611578 C130.85983,86.4794078 131.098466,86.4266109 131.389943,86.4402359 C132.030852,86.8864547 132.951307,87.4263453 133.970625,88.0445797 C134.251875,88.2148922 134.519489,88.3903141 134.77858,88.5538141 C135.015511,88.7105016 135.257557,88.8416422 135.50983,88.9915172 L136.478011,89.6182672 Z" id="Fill-69" fill="#155471"></path>
                <path d="M145.894602,89.6049828 L144.605966,88.1011234 C143.978693,87.3704828 143.266193,86.5121078 142.538352,85.6656547 C142.105398,85.1598266 141.662216,84.6659203 141.249716,84.1839359 L140.252557,83.0241078 C139.67983,82.3530766 139.32017,81.9596547 139.20767,81.8557641 C139.064489,81.4333891 139.362784,81.0893578 140.034375,80.5154047 C140.247443,80.3331703 140.511648,80.5886391 141.02983,81.1949516 L142.374716,82.7618266 C142.862216,83.3306703 143.359943,83.9352797 143.845739,84.5041234 C144.333239,85.0729672 144.822443,85.6179672 145.265625,86.1357172 L146.327557,87.3721859 C146.738352,87.8541703 147.034943,88.1709516 147.184943,88.3480766 L147.336648,88.5234984 C147.350284,88.8215453 147.051989,89.1400297 146.382102,89.7122797 C146.230398,89.8451234 146.08892,89.8332016 145.894602,89.6049828" id="Fill-71" fill="#155471"></path>
                <path d="M47.3938636,87.4045453 C47.3938636,87.4045453 51.7438636,89.0344359 62.2813636,90.0529047 C72.1796591,91.0083578 77.6682955,90.4820922 77.6682955,90.4820922 C77.0393182,83.8092484 77.7603409,76.4381234 78.4404545,71.9299516 L56.0273864,68.4913422 C53.1518182,73.3707953 49.22625,82.4058734 47.5182955,86.9719516" id="Fill-73" fill="#00CC00"></path>
                <path d="M44.244375,36.9096141 C44.919375,38.3129891 43.269375,38.0166453 43.4994886,39.1441141 C43.4926705,39.2463016 42.9284659,38.6110359 42.9489205,38.8750203 C43.3528977,40.1404422 42.0830114,40.4759578 40.9051705,40.4742547 L40.7807386,40.2835047 C40.5591477,40.2835047 40.9511932,40.9289891 40.7636932,40.9800828 C40.6580114,40.8761922 40.6511932,40.7961453 40.4807386,40.6820359 C40.7688068,41.0226609 40.419375,41.0413953 40.6051705,41.3224109 C40.438125,41.2508797 40.1926705,40.9988172 39.9966477,40.9204734 L40.2898295,41.3445516 C40.9477841,42.3817547 39.7921023,41.7550047 39.950625,42.4328484 C39.8824432,42.3374734 39.8466477,42.2472078 39.7460795,42.1858953 C39.8261932,43.1038797 39.1903977,43.5058172 38.8869886,44.1461922 C38.788125,43.9963172 38.5903977,43.7425516 38.4267614,43.6165203 C38.7574432,44.0337859 38.6994886,44.2705203 38.638125,44.4680828 C38.2188068,44.1138328 38.7421023,45.0471453 38.3909659,44.9636922 L38.3261932,44.8615047 C38.5801705,45.3894734 37.9358523,44.7542078 38.2835795,45.3520047 L37.9290341,45.0880203 C38.3722159,45.7164734 37.4994886,44.9245203 37.6528977,45.3026141 L37.756875,45.4201297 C37.7824432,45.6381297 37.4875568,45.3826609 37.4841477,45.5495672 L37.4210795,45.4899578 C37.3460795,45.8101453 36.9608523,45.5717078 37.3409659,46.0332547 C36.9676705,45.7164734 37.3989205,45.7062547 36.8483523,45.2532234 C36.5790341,46.2648797 35.8239205,46.7417547 35.1114205,47.2220359 C34.8898295,47.0806766 34.7977841,47.0568328 34.6477841,46.8831141 C34.6477841,47.0295828 34.4483523,47.1556141 34.5591477,47.4519578 C34.5761932,47.4281141 34.3392614,47.2322547 34.2864205,47.2339578 C34.0341477,47.1351766 34.5182386,47.8743328 34.2250568,47.7500047 C34.194375,47.5796922 34.1040341,47.4042703 33.9608523,47.2339578 C34.1040341,47.7040203 33.9028977,47.7534109 33.8415341,47.9765203 C33.8091477,47.8777391 33.8108523,47.8045047 33.7017614,47.6495203 C33.8364205,48.1996297 33.3659659,47.7602234 33.4017614,48.1195828 L33.2705114,47.7976922 C32.8188068,47.5762859 33.5892614,48.4465828 33.2585795,48.3546141 C33.2466477,48.2319891 33.1580114,48.1263953 33.0915341,48.0020672 C33.2415341,48.6458484 32.8290341,48.6475516 32.7523295,48.9387859 C32.7386932,48.8910984 32.6875568,48.8110516 32.6875568,48.8110516 C32.5239205,49.0000984 32.2136932,48.9524109 32.1267614,49.3219891 C31.9716477,49.2351297 31.7398295,48.5709109 31.5915341,48.8059422 C31.9341477,49.4088484 31.3665341,49.2674891 31.8659659,49.8823172 C31.6307386,49.9044578 31.1994886,49.8073797 31.1773295,50.0798797 C31.1432386,49.8039734 30.7000568,49.3679734 30.8296023,49.2419422 L30.5210795,48.9234578 C30.4102841,48.6628797 30.6847159,48.9524109 30.4852841,48.6526609 C30.4239205,48.7139734 30.3216477,49.0631141 30.2040341,48.9966922 C30.2466477,49.4463172 30.4546023,50.2263484 30.2483523,50.4239109 C30.2466477,50.1241609 29.8614205,49.7596922 29.8869886,49.6166297 L30.1051705,50.9859422 C30.0369886,51.0557703 29.8614205,50.4920359 29.8188068,50.7134422 C29.9023295,50.8803484 29.8955114,51.0063797 29.919375,51.1613641 C29.8563068,51.1017547 29.6466477,51.4866609 29.3415341,50.8667234 C29.2000568,50.6385047 29.4199432,50.6810828 29.2341477,50.4937391 C29.0824432,50.5567547 29.1659659,50.7764578 29.0142614,50.8445828 L28.9784659,50.7594266 C28.8386932,50.7032234 28.7858523,51.1392234 29.0347159,51.4508953 C29.1165341,51.4440828 28.8574432,51.0779109 29.0364205,51.2226766 C29.1114205,51.6195047 28.9665341,51.7932234 28.8063068,51.8579422 C28.8233523,51.7353172 28.7517614,51.5684109 28.7023295,51.3793641 C28.6835795,51.9601297 28.513125,52.2036766 28.3409659,52.5051297 C28.4449432,52.8168016 28.2335795,51.9141453 28.3273295,52.0640203 C27.8739205,51.7472391 27.8926705,52.9121766 27.4239205,52.3671766 C27.4477841,52.3007547 27.5875568,52.8031766 27.5551705,52.7180203 C27.3864205,52.7214266 27.256875,52.2700984 27.2057386,52.4608484 C27.1153977,52.2019734 27.106875,52.5817703 27.0250568,52.6890672 C27.0267614,52.8968484 26.9602841,52.5664422 27.0403977,52.5153484 C26.9688068,52.7776297 26.4830114,53.3430672 26.0466477,53.0450203 C26.0977841,53.2187391 25.9938068,53.7518172 25.9085795,53.7535203 L25.8438068,53.3311453 C25.7159659,53.0978172 25.5898295,53.4333328 25.4977841,53.0773797 C25.4466477,53.6291922 26.0330114,52.4829891 25.9000568,52.9309109 C25.7619886,52.5970984 25.7415341,53.6768797 25.6597159,53.0961141 C25.5114205,53.1557234 25.4551705,53.6615516 25.2182386,53.2902703 C25.2761932,53.3498797 25.2250568,52.6890672 25.1057386,52.7384578 C24.8977841,52.8508641 25.0852841,52.9496453 24.9267614,53.1216609 L24.8449432,53.3124109 C24.913125,53.7194578 24.6301705,53.2902703 24.7989205,53.7330828 C24.7119886,53.4009734 24.4955114,53.9970672 24.406875,53.3124109 L24.350625,52.7708172 C24.2602841,52.8253172 24.2841477,53.3635047 24.2432386,53.6121609 C24.2210795,53.5661766 24.1801705,53.4605828 24.1716477,53.3754266 C24.2790341,54.1997391 23.9261932,53.3430672 23.8955114,53.9987703 C23.6483523,53.7450047 23.356875,54.0668953 23.1983523,53.5491453 C23.0671023,53.8080203 22.9409659,54.1179891 22.738125,53.9510828 C22.7671023,53.8676297 22.8182386,53.8420828 22.813125,53.6632547 C22.6767614,53.4265203 22.6682386,53.6479266 22.569375,53.7892859 C22.5847159,53.6632547 22.3051705,53.3175203 22.1636932,53.0330984 C22.0222159,53.2885672 22.0972159,53.7347859 22.0955114,54.0089891 C21.913125,53.1965984 21.6523295,54.5659109 21.4426705,53.8318641 C21.4989205,53.7126453 21.6676705,53.4145984 21.5313068,53.2153328 C21.3744886,52.4097547 21.2517614,53.8403797 21.0080114,53.4316297 L21.0676705,54.1179891 C20.9619886,53.6905047 20.7046023,54.4994891 20.7403977,53.8063172 C20.6534659,54.0481609 20.4642614,53.5695828 20.4727841,54.2355047 C20.1046023,53.6581453 19.4688068,54.5403641 19.3273295,53.3345516 C19.2642614,53.4384422 19.1364205,53.3090047 19.1330114,53.6513328 C19.1909659,54.0345359 19.2847159,53.4060828 19.2966477,53.6598484 C19.2455114,53.6734734 19.2165341,53.8557078 19.2046023,53.9459734 C19.0955114,53.7773641 19.006875,53.7194578 19.1722159,53.1829734 C18.9574432,52.7384578 18.781875,54.2695672 18.4580114,53.9664109 C18.5091477,53.6939109 18.4989205,53.5866141 18.3915341,53.6206766 L18.1358523,54.0583797 C17.9244886,53.9187234 18.1000568,53.4197078 18.163125,52.9615672 C18.0352841,53.0245828 17.900625,52.9837078 17.788125,53.3192234 L17.7489205,52.7231297 C17.7778977,53.1523172 17.6057386,52.9871141 17.5307386,53.0893016 L17.6057386,52.9871141 C17.619375,52.7912547 17.4659659,52.8866297 17.3875568,52.9240984 C17.3517614,53.2119266 17.4642614,53.3635047 17.5273295,53.4520672 C17.4301705,53.6479266 17.3449432,53.5780984 17.2205114,53.7978016 C17.3330114,53.3532859 17.0926705,53.4367391 17.0091477,53.3669109 C16.925625,53.2459891 16.8063068,53.7415984 16.7790341,53.7194578 C16.8250568,53.4861297 16.6102841,53.6411141 16.7653977,53.3345516 C16.8182386,53.2664266 16.7994886,53.5763953 16.9034659,53.3907547 C16.8676705,53.2000047 16.9648295,52.7980672 16.7585795,53.0603484 C16.6017614,53.2545047 16.5898295,53.9459734 16.4432386,53.6172703 C16.5233523,53.5184891 16.5744886,53.3430672 16.6528977,53.1914891 L16.5148295,52.9172859 L16.4108523,53.3209266 C16.4091477,53.2119266 16.438125,53.1795672 16.438125,53.1233641 C16.2778977,53.5372234 16.1108523,53.1863797 15.9438068,53.6547391 C15.8330114,53.6734734 15.8074432,53.3260359 15.7273295,53.2579109 L15.7546023,53.2272547 C15.7034659,52.9683797 15.5159659,53.0773797 15.3421023,53.3175203 L15.3727841,53.2306609 C15.3199432,53.1795672 15.1597159,53.1965984 15.0097159,53.4060828 C14.9449432,53.0535359 15.4205114,51.8868953 15.0983523,52.3331141 C14.9466477,52.2973484 14.6244886,52.9803016 14.6040341,53.2545047 C14.4114205,52.8968484 13.8591477,53.4299266 13.8182386,52.7350516 C13.719375,52.8764109 13.7091477,52.9854109 13.5915341,53.0467234 C13.250625,52.7282391 12.5364205,53.1403953 12.5415341,52.2564734 C12.7290341,52.1423641 12.7171023,51.8783797 12.8142614,51.6620828 C12.5671023,51.9635359 12.8602841,51.2618484 12.5653977,51.8289891 C12.4188068,52.1764266 12.3335795,52.3382234 12.3864205,52.5272703 C12.0574432,52.6175359 11.694375,52.4370047 11.7233523,52.0538016 C11.7097159,52.2411453 11.6091477,52.3211922 11.5102841,52.3978328 C11.7898295,51.8647547 11.6619886,51.6995516 11.4386932,51.8255828 L11.2546023,52.1406609 L11.3415341,51.7625672 C11.2409659,51.8409109 10.9375568,52.4165672 10.9682386,52.0384734 L11.113125,51.6740047 C10.8421023,51.8732703 10.4057386,52.2190047 10.4074432,51.8732703 L10.5489205,51.3435984 C10.4636932,51.3572234 10.2028977,51.5786297 10.2352841,51.7761922 C10.1517614,51.3521141 10.0222159,51.2277859 10.1807386,50.7849734 C9.20744318,51.5156141 8.55119318,51.1852078 8.14892045,50.7900828 L8.31426136,50.5754891 C8.33642045,50.2808484 7.981875,50.9263328 8.00232955,50.7100359 C8.18982955,50.5209891 8.23073864,50.1769578 8.50857955,49.9793953 C8.50005682,49.6251453 8.01596591,50.2161297 7.82846591,50.2399734 C7.60517045,50.5192859 8.05346591,50.1156453 7.76710227,50.4733016 C7.67335227,50.5635672 7.68869318,50.0764734 7.34096591,50.4988484 C7.42107955,50.2944734 7.69210227,49.9947234 7.84551136,49.8295203 L7.58130682,49.9725828 C7.831875,49.3696766 8.53755682,49.2504578 8.85971591,48.5215203 L8.71823864,48.5283328 C8.96710227,48.0088797 9.33357955,48.1706766 9.22107955,47.8573016 C8.96710227,48.0088797 8.413125,48.5845359 8.36198864,48.8434109 C8.06710227,48.8093484 7.49778409,49.8158953 7.29664773,49.6030047 C7.42619318,49.2998484 7.52505682,49.6830516 7.74835227,49.2896297 C7.90517045,48.8570359 7.39039773,49.3219891 7.38698864,49.1261297 C7.36653409,49.3696766 6.94551136,49.7409578 6.81767045,49.7648016 C6.85517045,49.4701609 7.20460227,49.4156609 7.07335227,49.2419422 C6.85517045,49.4718641 6.556875,49.5382859 6.556875,49.8141922 C6.05744318,50.3302391 6.50232955,49.5229578 6.069375,49.8874266 C6.32676136,49.4531297 6.95744318,49.1108016 6.931875,48.7735828 C6.66255682,49.1738172 6.30119318,49.1142078 5.94835227,49.7477703 C5.96198864,49.5808641 6.19551136,49.2828172 6.43073864,49.0903641 C6.51767045,48.7820984 5.62960227,49.5791609 6.20573864,48.8093484 L5.85630682,49.1635984 C5.92789773,49.0120203 5.96198864,48.8808797 6.08301136,48.6339266 C6.00460227,48.5572859 5.375625,48.9098328 5.86482955,48.3478016 C5.788125,48.3835672 5.61596591,48.1911141 5.35517045,48.6458484 C5.27335227,48.9898797 5.73869318,48.4789422 5.35857955,49.0716297 C5.638125,48.5623953 5.131875,48.9745516 4.93414773,49.0545984 L5.113125,48.8263797 C4.99380682,48.8740672 4.93755682,48.7429266 4.70573864,48.9541141 C4.84721591,48.8604422 4.95801136,48.6969422 4.97164773,48.6151922 L4.63755682,48.9064266 C4.31710227,48.9166453 5.10801136,48.2933016 4.85573864,48.2439109 L5.20857955,48.0991453 C5.131875,48.1315047 5.35005682,47.7772547 5.18130682,47.8113172 C4.87960227,48.0838172 4.50460227,48.3835672 4.26767045,48.5913484 C4.05801136,48.6339266 4.531875,48.2200672 4.16369318,48.4380672 L4.606875,48.1911141 C4.71255682,48.1110672 4.97505682,47.6290828 4.850625,47.5285984 C4.681875,47.5609578 4.16710227,47.8692234 4.13982955,48.1451297 C4.07505682,48.0906297 4.15517045,47.8317547 4.40403409,47.6631453 C4.17392045,47.6358953 4.12619318,47.9969578 3.838125,48.0650828 C3.97107955,47.8249422 4.081875,47.4059734 4.26426136,47.0466141 L4.84892045,46.6753328 L4.77392045,46.5969891 C5.24948864,46.3057547 5.00744318,46.2546609 5.45744318,45.8987078 C5.46596591,45.7880047 5.26994318,45.8663484 5.11482955,45.9259578 C4.64096591,46.7213172 4.07164773,46.6429734 3.53642045,47.2714266 C3.15971591,47.2101141 4.82676136,45.7147703 3.68982955,46.4028328 C3.57392045,46.5918797 3.01823864,46.9256922 3.32335227,46.8933328 C3.25517045,46.6957703 2.64153409,47.3821297 2.72846591,46.9801922 C3.08642045,46.8626766 3.20403409,46.2716922 3.725625,46.0979734 C3.51596591,46.2785047 3.66596591,46.3364109 3.74778409,46.3108641 C3.91994318,46.0315516 4.35460227,45.7369109 4.22335227,45.6023641 C4.08698864,45.5768172 3.96596591,45.4763328 3.669375,45.7897078 C3.331875,46.1201141 3.82960227,45.8833797 3.43414773,46.1626922 C3.15119318,46.1064891 3.64721591,45.5853328 2.96880682,46.0928641 C3.12051136,46.1541766 2.79494318,46.5152391 2.55801136,46.7383484 L2.29039773,46.7468641 L2.54096591,46.5561141 C2.51369318,46.1984578 2.06710227,46.8882234 1.944375,46.6276453 L2.31085227,46.1098953 C2.74892045,45.7948172 2.40289773,46.5646297 3.00971591,45.9327703 C2.91767045,45.7845984 2.55460227,46.0383641 2.60914773,45.7641609 L2.82051136,45.7369109 C2.79835227,45.6721922 3.60971591,44.8444734 2.94494318,45.1220828 C2.66710227,45.2055359 2.694375,45.3060203 2.450625,45.5240203 C2.18982955,45.3826609 1.88471591,45.5376453 1.72448864,45.4388641 C2.225625,45.0471453 1.55914773,45.1578484 2.18130682,44.8802391 C1.95971591,45.1919109 2.26142045,45.4695203 2.77789773,45.1357078 C3.27221591,44.5566453 2.844375,45.3673328 3.44607955,44.8955672 C3.31482955,44.7218484 3.87221591,44.2347547 4.213125,43.8822078 C4.19948864,43.8174891 4.00857955,43.9128641 3.92846591,43.9384109 C3.56880682,44.2245359 3.62505682,44.2773328 3.27903409,44.5941141 C3.21085227,44.3318328 2.86142045,44.3335359 2.44039773,44.5225828 C2.55460227,44.3113953 2.919375,44.0320828 3.013125,44.0746609 C2.72846591,43.9469266 2.57676136,43.6710203 2.50857955,43.3763797 C2.04664773,43.9860984 2.17619318,43.2537547 1.77392045,43.7425516 C1.738125,43.9605516 1.41426136,44.3965516 1.10232955,44.5481297 C1.07846591,44.4459422 1.35801136,44.3420516 1.45346591,44.2092078 C1.06142045,44.3761141 1.83869318,43.6556922 1.26767045,43.9707703 C1.625625,44.0252703 2.00573864,43.4376922 2.49153409,43.1055828 C2.11653409,43.1685984 2.81539773,42.8467078 2.70289773,42.7036453 C2.33471591,42.7649578 1.99380682,42.7445203 1.76369318,42.6576609 C2.038125,42.1143641 1.36994318,42.1262859 1.20971591,41.9491609 C1.37676136,41.6766609 1.95630682,41.3496609 1.97164773,41.1793484 C1.87107955,41.0635359 1.46198864,41.6919891 1.57448864,41.3309266 L1.69210227,41.2713172 C1.52505682,41.3053797 1.81823864,40.6735203 1.00346591,41.1657234 L1.62903409,40.8114734 C1.65971591,40.7382391 1.50119318,40.7995516 1.419375,40.8165828 C1.60857955,40.6803328 1.75517045,40.5185359 1.91880682,40.4861766 C2.24607955,40.0910516 1.68869318,40.2988328 1.588125,40.1847234 L1.29153409,40.5032078 C0.872215909,40.4759578 1.12278409,40.0944578 0.861988636,39.9701297 L1.21142045,39.7487234 L0.923352273,39.7589422 C1.27960227,39.5698953 1.42789773,39.3178328 1.100625,39.4336453 L2.16085227,39.2003172 C2.01255682,39.4200203 1.67676136,39.3791453 1.37164773,39.6550516 C1.100625,39.8985984 1.325625,40.0297391 1.67676136,39.8372859 C1.66653409,39.7402078 1.58982955,39.7861922 1.42789773,39.8117391 C1.89153409,39.4711141 1.94948864,39.5937391 2.30403409,39.4302391 C2.25971591,39.4063953 2.37051136,39.2582234 2.21198864,39.3518953 C2.49664773,39.2684422 2.58017045,39.3144266 2.67051136,39.4268328 C2.43017045,39.4711141 2.40460227,39.6686766 2.24778409,39.7316922 C2.67221591,39.4574891 2.881875,39.4796297 2.86823864,39.7061453 C2.45914773,40.1472547 3.36767045,39.7623484 3.35403409,40.0178172 C2.88528409,40.2545516 2.48982955,40.4078328 2.24267045,40.4214578 C2.11142045,40.6803328 2.34323864,40.5338641 2.21028409,40.7927391 C2.55971591,40.6224266 3.06255682,40.3124578 3.350625,40.3090516 L3.050625,40.5423797 C3.29948864,40.5525984 3.75119318,40.2136766 3.781875,40.4316766 C3.82619318,40.8114734 4.04948864,41.0771609 4.16369318,41.3070828 L3.875625,41.5523328 C4.59323864,41.1572078 4.40573864,41.7311609 4.80801136,41.6460047 C4.73982955,42.1279891 5.52732955,41.9474578 5.14721591,42.4958641 C5.75403409,42.7274891 6.28414773,42.8995047 6.59948864,43.4070359 L6.13414773,43.7204109 C6.49721591,43.5160359 5.95346591,43.9929109 6.08471591,44.0099422 C6.31653409,43.6165203 6.59607955,43.7135984 6.88585227,43.5262547 C6.75801136,44.0201609 7.33755682,43.9145672 7.76710227,43.7885359 L7.50971591,44.0712547 C8.16767045,43.7084891 7.93414773,44.3505672 8.07051136,44.6349891 C7.98869318,44.7729422 7.79096591,45.0726922 7.88642045,45.0982391 C8.413125,44.7405828 8.44551136,44.8257391 8.86653409,44.6809734 C8.99096591,44.7899734 9.09494318,45.0778016 9.069375,45.3741453 C10.1057386,45.0709891 10.2386932,45.9174422 11.0671023,45.8373953 L10.8489205,46.2291141 C11.8767614,45.7999266 12.0301705,46.9018484 12.7273295,46.7400516 L12.3028977,47.3753172 C12.3250568,47.6648484 12.7239205,47.3957547 12.950625,46.9018484 C12.9744886,47.1913797 13.4739205,46.7570828 13.2676705,47.3582859 C13.3494886,47.5575516 13.6085795,47.1385828 13.7722159,47.1045203 C13.9307386,47.5064578 14.0653977,47.5149734 14.3994886,47.5081609 L14.3500568,47.4366297 C14.2494886,47.5762859 14.1097159,47.8692234 14.1608523,47.9424578 C14.3534659,47.7942859 14.4676705,48.2898953 14.7301705,47.4127859 C14.8222159,48.0190984 15.5653977,47.3003797 15.5926705,48.0804109 C15.6557386,47.8385672 15.7460795,47.8164266 15.8330114,47.6665516 C16.0903977,47.7363797 16.2114205,48.3103328 16.5472159,47.9748172 C16.5523295,48.1076609 16.3546023,48.3580203 16.4534659,48.4176297 C16.5455114,48.3478016 16.5523295,48.1076609 16.6682386,48.0020672 C17.2051705,47.7125359 17.4046023,48.6765047 17.8392614,48.6662859 C18.631875,48.3716453 19.3102841,48.6696922 19.9955114,48.6594734 L19.9767614,48.8417078 C20.2392614,48.1536453 20.4864205,49.5740516 20.7028977,48.5300359 C20.7523295,48.7088641 20.9057386,48.6220047 20.8597159,48.9728484 C21.0386932,48.4959734 21.3813068,49.4565359 21.631875,48.7974266 C21.6097159,48.7855047 21.5960795,48.8229734 21.5705114,48.9030203 C21.856875,49.2896297 22.0648295,48.7241922 22.3750568,49.0682234 C22.3511932,49.1499734 22.3017614,49.2112859 22.3085795,49.3918172 C22.4551705,49.7341453 22.5046023,48.6083797 22.6494886,49.4820828 C22.7125568,49.4701609 22.6494886,49.0392703 22.6136932,49.0682234 C23.2852841,49.3441297 23.8869886,48.6526609 24.4682386,48.3529109 C25.0375568,48.7412234 24.8261932,49.7920516 25.044375,49.0528953 C25.1159659,49.2112859 24.988125,48.7207859 25.0341477,48.8962078 C25.1159659,48.6168953 25.5028977,49.7886453 25.4892614,49.3134734 C25.3136932,48.8025359 25.4824432,49.0035047 25.3989205,48.6833172 C25.7722159,48.9490047 25.9750568,49.4003328 26.0892614,48.9438953 L26.1540341,49.2215047 C26.1915341,48.3954891 26.6244886,48.6833172 26.5409659,47.7261609 C27.8858523,47.0704578 28.9563068,46.0230359 30.1460795,45.1833953 C31.4977841,44.6366922 32.4301705,43.4496141 33.9284659,42.9250516 C34.6665341,43.2878172 34.6835795,43.2503484 34.8011932,42.7649578 C34.8625568,42.8688484 34.8625568,42.9063172 34.9563068,42.9778484 C34.5830114,42.4873484 35.1369886,42.7564422 34.794375,42.2795672 C35.3108523,42.0138797 35.6125568,41.5608484 36.0352841,41.1418797 C36.0097159,41.2576922 36.3080114,41.6613328 36.3625568,41.5557391 L36.1869886,41.1861609 L36.3182386,41.3002703 C36.313125,41.1793484 36.1699432,40.9000359 35.9790341,40.8046609 C36.7102841,39.4506766 38.6057386,39.2973953 39.5210795,38.0932859 C39.9472159,38.0098328 40.138125,37.5074109 40.288125,37.1242078 C41.638125,36.8091297 42.8364205,36.4310359 43.1619886,35.1775359 C43.1619886,35.1775359 44.2903977,36.2981922 44.244375,36.9096141" id="Fill-75" fill="#155471"></path>
                <path d="M3.46193182,47.5607875 C3.51477273,47.5795219 3.75340909,47.4943656 3.57613636,47.7430219 C3.68693182,47.553975 3.15340909,47.8162562 3.46193182,47.5607875" id="Fill-77" fill="#F27123"></path>
                <path d="M4.46727273,47.9399031 C4.47920455,47.9756687 4.45534091,48.0216531 4.53204545,47.9892938 C4.49113636,48.1221375 4.31045455,48.2260281 4.25761364,48.2107 L4.46727273,47.9399031 Z" id="Fill-79" fill="#F27123"></path>
                <polygon id="Fill-81" fill="#F27123" points="21.2430682 53.9258766 21.1373864 54.0587203 21.1493182 53.7896266"></polygon>
                <path d="M28.906875,52.399025 C28.944375,52.2031656 29.0671023,52.6119156 29.0977841,52.6425719 C29.0176705,52.7055875 29.0125568,52.317275 28.906875,52.399025" id="Fill-83" fill="#F27123"></path>
                <polygon id="Fill-85" fill="#F27123" points="32.0030114 49.4650516 31.9791477 49.4871922 31.7183523 48.9932859"></polygon>
                <g id="Group-89" transform="translate(0.000000, 54.501362)">
                    <mask id="mask-6" fill="white">
                        <use xlink:href="#path-5"></use>
                    </mask>
                    <g id="Clip-88"></g>
                    <path d="M44.645625,34.2653422 C42.9751705,33.9434516 43.8905114,32.2863109 42.6530114,31.7072484 C42.5524432,31.6203891 43.389375,31.4381547 43.1132386,31.2661391 C41.7138068,30.7909672 41.7496023,29.1406391 42.0444886,27.7134203 L42.2728977,27.6912797 C42.3291477,27.4170766 41.551875,27.4596547 41.5467614,27.2024828 C41.6814205,27.1394672 41.7700568,27.1871547 41.9285795,27.0543109 C41.5007386,27.1769359 41.5672159,26.7409359 41.2263068,26.7818109 C41.345625,26.6268266 41.6694886,26.4922797 41.7973295,26.2981234 L41.2825568,26.3781703 C40.0348295,26.5280453 40.970625,25.5078734 40.1882386,25.2966859 C40.3058523,25.2694359 40.4115341,25.2762484 40.4933523,25.1910922 C39.4910795,24.7414672 39.170625,23.7502484 38.5126705,23.0417484 C38.6899432,22.9957641 38.9933523,22.8833578 39.1484659,22.7454047 C38.6524432,22.9395609 38.4086932,22.7419984 38.2041477,22.5665766 C38.6422159,22.2242484 37.5717614,22.4081859 37.7132386,22.0164672 L37.8291477,21.9824047 C37.2257386,22.0505297 37.9757386,21.5515141 37.2888068,21.7099047 L37.6041477,21.3914203 C36.8797159,21.6639203 37.8121023,20.9349828 37.3825568,20.9605297 L37.2461932,21.0371703 C37.0041477,20.9741547 37.3058523,20.7186859 37.1183523,20.6403422 L37.1882386,20.5875453 C36.8422159,20.3627328 37.1217614,19.9727172 36.5967614,20.2639516 C36.9615341,19.9233266 36.9530114,20.4717328 37.4763068,19.9659047 C36.3683523,19.1994984 35.8757386,18.0737328 35.2484659,17.0450453 C35.3848295,16.8066078 35.4035795,16.6959047 35.5842614,16.5511391 C35.4155114,16.5102641 35.251875,16.2173266 34.933125,16.2854516 C34.9655114,16.3109984 35.158125,16.0572328 35.1496023,15.9874047 C35.2297159,15.6791391 34.464375,16.1287641 34.5700568,15.7796234 C34.7524432,15.7796234 34.9348295,15.7063891 35.1052841,15.5616234 C34.6058523,15.6280453 34.5172159,15.3623578 34.2564205,15.2380297 C34.3638068,15.2141859 34.4439205,15.2329203 34.5990341,15.1256234 C34.0109659,15.1869359 34.4285795,14.6572641 34.0211932,14.6436391 L34.3569886,14.5278266 C34.501875,13.9828266 33.6922159,14.8309828 33.7228977,14.4256391 C33.8575568,14.4290453 33.9564205,14.3319672 34.0825568,14.2638422 C33.3939205,14.3575141 33.2984659,13.8397641 32.9439205,13.7205453 C32.9933523,13.7052172 33.0683523,13.6473109 33.0683523,13.6473109 C32.8194886,13.4259047 32.7785795,13.0341859 32.3507386,12.8996391 C32.4001705,12.7037797 33.0598295,12.4432016 32.7564205,12.2303109 C32.2075568,12.6458734 32.1700568,11.9322641 31.6655114,12.5624203 C31.5785795,12.2660766 31.5035795,11.7364047 31.1984659,11.7278891 C31.4865341,11.6699828 31.7797159,11.0892172 31.9740341,11.2510141 L32.1922159,10.8405609 C32.4325568,10.6872797 32.2365341,11.0551547 32.4802841,10.7877641 C32.3814205,10.7060141 31.9433523,10.5833891 31.9621023,10.4249984 C31.4780114,10.5135609 30.7297159,10.8575922 30.4280114,10.6378891 C30.7484659,10.5953109 30.9513068,10.0690453 31.1166477,10.0826703 L29.776875,10.5544359 C29.6763068,10.4863109 30.1757386,10.1729359 29.9251705,10.1610141 C29.7905114,10.2887484 29.6592614,10.3057797 29.5126705,10.3670922 C29.5416477,10.2768266 29.0507386,10.1218422 29.5194886,9.62112344 C29.6780114,9.39971719 29.758125,9.67051406 29.8450568,9.40482656 C29.6882386,9.24643594 29.5075568,9.39801406 29.3473295,9.24132656 L29.4103977,9.17660781 C29.383125,8.99607656 28.9058523,9.05909219 28.7422159,9.43888906 C28.7950568,9.52915469 29.0115341,9.12381094 28.970625,9.37417031 C28.6126705,9.57684219 28.3689205,9.45762344 28.2035795,9.32137344 C28.3365341,9.29582656 28.4592614,9.16127969 28.6177841,9.04206094 C28.0246023,9.21748281 27.6888068,9.13402969 27.3069886,9.07782656 C27.0802841,9.31285781 27.7961932,8.72868594 27.7126705,8.88877969 C27.7211932,8.25692031 26.6677841,8.79510781 26.8433523,8.08320156 C26.9234659,8.07298281 26.5689205,8.45618594 26.6234659,8.38295156 C26.5024432,8.22796719 26.8075568,7.87031094 26.5996023,7.92140469 C26.7649432,7.69999844 26.420625,7.88734219 26.270625,7.87031094 C26.0950568,7.98612344 26.3285795,7.73917031 26.4308523,7.79196719 C26.139375,7.85327969 25.3314205,7.79026406 25.2274432,7.22823281 C25.1302841,7.38151406 24.6547159,7.66082656 24.5933523,7.59951406 L24.8524432,7.25718594 C24.9172159,6.99660781 24.5746023,7.12604531 24.7501705,6.80585781 C24.3069886,7.14307656 25.6348295,6.83651406 25.1967614,7.03237344 C25.3228977,6.69515469 24.5132386,7.41387344 24.8711932,6.95232656 C24.7024432,6.86546719 24.3138068,7.18565469 24.3615341,6.75135781 C24.3717614,6.83140469 24.789375,6.31024844 24.6376705,6.26085781 C24.3615341,6.20635781 24.470625,6.40562344 24.2132386,6.43287344 L24.0138068,6.52995156 C23.8177841,6.89782656 23.8365341,6.37667031 23.7138068,6.83481094 C23.8348295,6.51121719 23.3030114,6.86206094 23.6132386,6.24723281 L23.8723295,5.76865469 C23.7513068,5.75332656 23.4649432,6.21998281 23.2961932,6.40902969 C23.3030114,6.35793594 23.3183523,6.24723281 23.3575568,6.16888906 C23.0217614,6.93018594 23.1410795,6.00709219 22.7950568,6.56060781 C22.6910795,6.19102969 22.295625,6.37667031 22.3416477,5.84359219 C22.1047159,6.03945156 21.9001705,6.27107656 21.7603977,6.07521719 C21.8115341,6.00368594 21.8694886,5.99006094 21.9189205,5.81974844 C21.8524432,5.55917031 21.7740341,5.76865469 21.6427841,5.88106094 C21.6939205,5.76524844 21.4996023,5.35820156 21.3922159,5.03971719 C21.1825568,5.25942031 21.1927841,5.71926406 21.1416477,5.98665469 C21.0700568,5.15893594 20.6677841,6.48396719 20.533125,5.72267031 C20.5859659,5.61026406 20.7905114,5.34287344 20.6575568,5.12317031 C20.5075568,4.28352969 20.3234659,5.73459219 20.0848295,5.33946719 L20.1683523,6.01731094 C20.0422159,5.60174844 19.8632386,6.41754531 19.8325568,5.72777969 C19.7814205,5.98495156 19.5325568,5.54213906 19.6365341,6.19954531 C19.164375,5.67668594 18.8541477,6.68834219 18.2933523,5.60685781 C18.2660795,5.73459219 18.0905114,5.67498281 18.2251705,5.98835781 C18.4263068,6.31195156 18.2746023,5.69201406 18.3836932,5.92023281 C18.339375,5.95770156 18.3836932,6.13482656 18.4058523,6.22509219 C18.2473295,6.11949844 18.1314205,6.10757656 18.0751705,5.54213906 C17.6524432,5.26282656 18.1638068,6.68493594 17.7649432,6.58274844 C17.6746023,6.32387344 17.6098295,6.23701406 17.5297159,6.32217031 L17.5433523,6.82970156 C17.2944886,6.81948281 17.1530114,6.31535781 16.9484659,5.89809219 C16.8615341,6.02071719 16.7064205,6.09054531 16.8155114,6.42265469 L16.3978977,5.98665469 C16.7030114,6.30002969 16.4336932,6.28640469 16.4336932,6.41413906 L16.4336932,6.28640469 C16.3160795,6.12631094 16.2342614,6.30513906 16.1967614,6.39370156 C16.3603977,6.62873281 16.5564205,6.66279531 16.6672159,6.69515469 C16.7098295,6.90463906 16.5990341,6.90974844 16.6467614,7.16010781 C16.4405114,6.75135781 16.3024432,6.99660781 16.1916477,7.01023281 C16.0365341,6.98979531 16.2990341,7.42749844 16.2632386,7.43260781 C16.1302841,7.23504531 16.0808523,7.50073281 15.9751705,7.17543594 C15.9683523,7.08857656 16.1797159,7.31679531 16.1217614,7.10731094 C15.958125,7.00001406 15.7382386,6.65257656 15.7638068,6.99320156 C15.7876705,7.25037344 16.295625,7.71702969 15.9444886,7.61313906 C15.9291477,7.48540469 15.8336932,7.32531094 15.7791477,7.16521719 L15.4603977,7.10220156 L15.695625,7.44793594 C15.6103977,7.37981094 15.6069886,7.33723281 15.5626705,7.29976406 C15.7655114,7.69659219 15.3666477,7.61143594 15.6274432,8.03721719 C15.5677841,8.13088906 15.2660795,7.94013906 15.151875,7.97249844 L15.1467614,7.93502969 C14.8910795,7.82943594 14.8535795,8.07127969 14.9541477,8.35399844 L14.8978977,8.28076406 C14.8228977,8.30120156 14.7325568,8.46129531 14.8297159,8.69973281 C14.4871023,8.59073281 13.7336932,7.57226406 13.9297159,8.10704531 C13.7933523,8.25181094 14.2314205,8.87004531 14.4700568,9.01310781 C14.0234659,9.03354531 14.2467614,9.78632656 13.5649432,9.56321719 C13.6501705,9.71309219 13.7490341,9.76418594 13.7524432,9.90384219 C13.2888068,10.1644203 13.4251705,10.9955453 12.545625,10.7877641 C12.5047159,10.5629516 12.2302841,10.5135609 12.0444886,10.3670922 C12.2541477,10.6992016 11.6507386,10.2410609 12.1160795,10.6770609 C12.4160795,10.9052797 12.5524432,11.0279047 12.7586932,11.0159828 C12.7211932,11.3736391 12.4399432,11.7278891 12.0615341,11.6546547 C12.2507386,11.6938266 12.301875,11.8147484 12.3530114,11.9373734 C11.8876705,11.5541703 11.6763068,11.6819047 11.7444886,11.9458891 L12.0240341,12.1809203 L11.6541477,12.0480766 C11.7086932,12.1689984 12.2285795,12.5573109 11.8501705,12.4908891 C11.7274432,12.4159516 11.6064205,12.3376078 11.5024432,12.3018422 C11.6422159,12.6237328 11.9166477,13.1159359 11.5501705,13.0920922 L11.0183523,12.9217797 C11.0183523,13.0205609 11.2109659,13.3186078 11.4189205,13.2862484 C10.970625,13.3782172 10.8189205,13.5349047 10.3723295,13.3697016 C10.9961932,14.4682172 10.6126705,15.1767172 10.2069886,15.7114984 L9.98028409,15.5582172 C9.66664773,15.5803578 10.3450568,15.8767016 10.1166477,15.8886234 C9.92232955,15.7080922 9.55585227,15.7217172 9.34960227,15.4372953 C8.96948864,15.5207484 9.59676136,15.9686703 9.62232955,16.1747484 C9.92232955,16.3740141 9.48767045,15.9431234 9.86948864,16.1968891 C9.96835227,16.2854516 9.451875,16.3689047 9.90698864,16.6703578 C9.68880682,16.6226703 9.36323864,16.3859359 9.18767045,16.2445766 L9.34278409,16.5119672 C8.68653409,16.3757172 8.56721591,15.5684359 7.78142045,15.3674672 L7.78142045,15.5411859 C7.21210227,15.3913109 7.42005682,14.8752641 7.06039773,15.1154047 C7.21210227,15.3913109 7.83426136,15.8937328 8.11721591,15.8852172 C8.083125,16.2530922 9.17744318,16.6431078 8.96607955,16.9360453 C8.64221591,16.8696234 9.03767045,16.6465141 8.61153409,16.4932328 C8.14619318,16.4336234 8.66607955,16.9122016 8.45982955,16.9701078 C8.71892045,16.9190141 9.13823864,17.3056234 9.17403409,17.4452797 C8.86380682,17.4827484 8.776875,17.1012484 8.60471591,17.2988109 C8.86380682,17.4844516 8.96267045,17.7995297 9.25073864,17.7228891 C9.83880682,18.1350453 8.95244318,17.8642484 9.38028409,18.2440453 C8.89619318,18.0890609 8.47176136,17.4759359 8.11892045,17.6138891 C8.56721591,17.7961234 8.54335227,18.2253109 9.24903409,18.4177641 C9.076875,18.4518266 8.73255682,18.2900297 8.50414773,18.0839516 C8.16835227,18.0924672 9.11607955,18.8231078 8.23823864,18.4399047 L8.65414773,18.7072953 C8.48710227,18.6800453 8.34903409,18.6902641 8.07460227,18.6459828 C8.00301136,18.7686078 8.476875,19.3442641 7.81380682,19.0053422 C7.85982955,19.0802797 7.69107955,19.3527797 8.21096591,19.4668891 C8.57914773,19.4277172 7.970625,19.0973109 8.64392045,19.3050922 C8.07289773,19.1807641 8.58767045,19.5929203 8.71039773,19.7751547 L8.44107955,19.6678578 C8.51267045,19.7751547 8.38823864,19.8909672 8.65244318,20.0612797 C8.52630682,19.9454672 8.33539773,19.8858578 8.25017045,19.9028891 L8.61664773,20.1566547 C8.69676136,20.4972797 7.89221591,19.8875609 7.89221591,20.1839047 L7.67232955,19.8534984 C7.72005682,19.9250297 7.30926136,19.8330609 7.37744318,20.0118891 C7.71664773,20.2264828 8.11380682,20.5143109 8.37971591,20.6812172 C8.47176136,20.8924047 7.93994318,20.5568891 8.25017045,20.8600453 L7.89392045,20.4836547 C7.78994318,20.4002016 7.23596591,20.3235609 7.16267045,20.5160141 C7.23596591,20.6931391 7.67914773,21.1172172 7.96210227,21.0201391 C7.92630682,21.1172172 7.64335227,21.1444672 7.41153409,20.9537172 C7.44392045,21.2194047 7.81721591,21.1018891 7.96210227,21.3863109 C7.68426136,21.3488422 7.23426136,21.4237797 6.81835227,21.4101547 L6.28823864,20.9486078 L6.226875,21.0729359 C5.81096591,20.6863266 5.814375,20.9928891 5.33710227,20.6709984 C5.21607955,20.7237953 5.34732955,20.9094359 5.44619318,21.0542016 C6.38880682,21.1597953 6.45698864,21.8393422 7.24789773,22.0931078 C7.30585227,22.5257016 5.30301136,21.5191547 6.33596591,22.3945609 C6.55926136,22.4167016 7.06721591,22.8339672 6.939375,22.5205922 C6.76551136,22.7062328 7.64164773,22.9923578 7.21892045,23.1149828 C6.98710227,22.7930922 6.36323864,22.9991703 6.02232955,22.5291078 C6.26607955,22.6568422 6.27971591,22.4558734 6.226875,22.3826391 C5.89448864,22.3502797 5.46664773,22.0403109 5.37119318,22.2702328 C5.38482955,22.4388422 5.32176136,22.6347016 5.73085227,22.7726547 C6.16892045,22.9463734 5.77176136,22.5410297 6.17744318,22.8118266 C6.21494318,23.1507484 5.52801136,22.9208266 6.26096591,23.3534203 C6.26948864,23.1541547 6.73994318,23.2989203 7.03823864,23.4266547 L7.13880682,23.7008578 L6.86267045,23.5424672 C6.52517045,23.7774984 7.35357955,23.8524359 7.15073864,24.1300453 L6.51494318,24.0431859 C6.04789773,23.7689828 6.91721591,23.6787172 6.08880682,23.4062172 C5.97460227,23.5969672 6.35471591,23.8302953 6.06835227,23.9375922 L5.96607955,23.7281078 C5.91153409,23.7911234 4.80698864,23.4351703 5.32005682,23.9784672 C5.50414773,24.2271234 5.59278409,24.1351547 5.89448864,24.2577797 C5.85698864,24.6222484 6.12801136,24.8419516 6.09392045,25.0718734 C5.51778409,24.7959672 5.89278409,25.4227172 5.37460227,24.9526547 C5.76323864,24.9782016 5.91494318,24.4945141 5.39505682,24.1521859 C4.64676136,23.9989047 5.59619318,23.9341859 4.91607955,23.5799359 C4.79164773,23.8371078 4.10982955,23.5543891 3.63596591,23.4181391 C3.57630682,23.4828578 3.74164773,23.6293266 3.79278409,23.7025609 C4.20698864,23.9018266 4.239375,23.7996391 4.68085227,23.9682484 C4.44903409,24.2220141 4.57176136,24.6018109 4.92630682,24.9254047 C4.67914773,24.9441391 4.26323864,24.7516859 4.26835227,24.6154359 C4.26153409,25.0207797 4.05357955,25.3767328 3.80130682,25.6730766 C4.58198864,25.7122484 3.826875,26.1124828 4.46607955,26.1754984 C4.69107955,26.0511703 5.24505682,26.0801234 5.52460227,26.2947172 C5.43767045,26.3917953 5.21607955,26.1789047 5.05073864,26.1703891 C5.38142045,26.4548109 4.35528409,26.1703891 4.90755682,26.5297484 C4.80017045,26.1261078 4.07573864,26.1567641 3.54732955,25.8978891 C3.770625,26.2470297 3.16039773,25.7446078 3.07346591,25.9813422 C3.29335227,26.3287797 3.43142045,26.7068734 3.45869318,27.0083266 C2.81607955,27.1582016 3.15698864,27.8479672 3.08028409,28.1494203 C2.74960227,28.2107328 2.15471591,27.8956547 1.989375,28.0284984 C1.93482955,28.2328734 2.71551136,28.1051391 2.33028409,28.3078109 L2.214375,28.2345766 C2.33369318,28.3725297 1.60926136,28.6399203 2.48710227,29.0197172 L1.83596591,28.7080453 C1.75244318,28.7438109 1.89221591,28.8442953 1.951875,28.9141234 C1.726875,28.8442953 1.50528409,28.8442953 1.389375,28.7080453 C0.860965909,28.7421078 1.33994318,29.1202016 1.295625,29.3245766 L1.74221591,29.3245766 C1.951875,29.7622797 1.48142045,29.8678734 1.520625,30.2408578 L1.12857955,30.1114203 L1.30414773,30.3805141 C0.934261364,30.2153109 0.632556818,30.3260141 0.924034091,30.5269828 L0.105852273,29.7162953 C0.381988636,29.6430609 0.537102273,30.0194516 0.954715909,30.0449984 C1.32289773,30.0722484 1.30414773,29.7350297 0.939375,29.5664203 C0.860965909,29.6703109 0.946193182,29.7043734 1.06210227,29.8372172 C0.497897727,29.7094828 0.571193182,29.5374672 0.231988636,29.3330922 C0.233693182,29.4029203 0.039375,29.4403891 0.213238636,29.5068109 C-0.0219886364,29.3024359 -0.0236931818,29.1661859 0.0257386364,28.9549984 C0.199602273,29.1627797 0.392215909,28.9856547 0.531988636,29.0895453 C0.0513068182,28.9209359 -0.0373295455,28.6756859 0.180852273,28.4679047 C0.796193182,28.4679047 -0.0271022727,27.8769203 0.223465909,27.6350766 C0.675170455,27.9143891 1.01778409,28.1937016 1.15755682,28.4321391 C1.46267045,28.3316547 1.20869318,28.2277641 1.51551136,28.1272797 C1.17971591,27.9160922 0.642784091,27.6691391 0.501306818,27.3574672 L0.866079545,27.4664672 C0.753579545,27.1905609 0.221761364,27.0083266 0.414375,26.7664828 C0.753579545,26.3560297 0.922329545,25.8723422 1.09448864,25.5334203 L1.45414773,25.6441234 C0.760397727,25.1740609 1.41323864,24.8845297 1.17289773,24.4945141 C1.68426136,24.1692172 1.20528409,23.3772641 1.90755682,23.3806703 C1.94164773,22.4814203 1.96039773,21.6741391 2.43255682,20.9060297 L2.88426136,21.2568734 C2.57232955,20.9554203 3.21835227,21.2858266 3.20301136,21.1104047 C2.72744318,21.1052953 2.758125,20.6897328 2.49221591,20.4564047 C3.04619318,20.2605453 2.81267045,19.6099516 2.60982955,19.1262641 L2.96267045,19.2693266 C2.458125,18.6527953 3.20301136,18.5165453 3.49619318,18.1657016 C3.66153409,18.1878422 4.01948864,18.2661859 4.03823864,18.1282328 C3.583125,17.6479516 3.67517045,17.5525766 3.48767045,17.0654828 C3.60357955,16.8338578 3.91892045,16.5187797 4.258125,16.3893422 C3.93085227,15.1256234 4.89051136,14.4886547 4.94846591,13.3373422 L5.37460227,13.4940297 C5.04903409,12.1434516 6.43823864,11.5252172 6.51494318,10.5408109 L7.10471591,11.0313109 C7.44903409,10.9393422 7.27857955,10.4096703 6.79278409,10.1627172 C7.13710227,10.0690453 6.88994318,9.38609219 7.50017045,9.60409219 C7.77801136,9.45762344 7.408125,9.11529531 7.47119318,8.86323281 C8.05414773,8.58051406 8.11210227,8.37273281 8.34903409,7.86009219 L8.22630682,7.93673281 C8.31835227,8.08660781 8.570625,8.29268594 8.69335227,8.21774844 C8.65585227,7.92992031 9.31721591,7.77663906 8.49051136,7.35256094 C9.25755682,7.24526406 9.06664773,6.01390469 9.99903409,6.07862344 C9.78596591,5.94237344 9.85244318,5.80442031 9.77573864,5.64262344 C10.1336932,5.24238906 10.9007386,5.23046719 10.9263068,4.62756094 C11.0728977,4.65992031 11.1121023,5.03290469 11.2876705,4.90517031 C11.3183523,4.74677969 11.0694886,4.65992031 11.0967614,4.44873281 C11.4819886,3.50349844 12.7944886,3.66529531 13.4064205,3.13221719 C14.3814205,1.90937344 16.0263068,1.39162344 17.5109659,0.950514062 L17.5399432,1.13274844 C17.9132386,0.310139062 18.8371023,1.59088906 19.1149432,0.511107813 C19.2598295,0.662685937 19.6058523,0.540060937 19.539375,0.901123437 C19.9484659,0.396998438 20.6899432,1.30817031 21.3103977,0.756357812 C21.2541477,0.735920312 21.2200568,0.769982812 21.1501705,0.843217188 C21.714375,1.27240469 22.3058523,0.821076562 22.8547159,1.30135781 C22.7746023,1.36948281 22.6535795,1.40184219 22.5973295,1.57726406 C22.745625,1.95535781 23.3251705,0.940295312 23.2297159,1.83613906 C23.3558523,1.86509219 23.4359659,1.43420156 23.3473295,1.43760781 C24.5405114,2.08479531 25.9689205,2.14610781 27.2405114,2.66045156 C27.7638068,3.60057656 26.5024432,3.94631094 27.4689205,3.77429531 C27.4246023,3.94460781 27.6922159,3.51542031 27.5984659,3.67381094 C27.9751705,3.62101406 27.3836932,4.72634219 27.7961932,4.45384219 C28.051875,3.96845156 28.0723295,4.28182656 28.2717614,4.01784219 C28.5052841,4.63096719 28.295625,5.05674844 28.8666477,5.00735781 L28.6621023,5.20832656 C29.5416477,4.90517031 29.7138068,5.58982656 30.6359659,5.19129531 C32.7700568,6.94210781 34.7865341,8.61798281 36.3649432,10.6566234 C37.6672159,12.8212953 39.3121023,14.6811078 40.0757386,17.1097641 C39.7092614,17.9783578 39.7450568,18.0004984 40.3058523,18.4177641 C40.1882386,18.4552328 40.1439205,18.4330922 40.0638068,18.5233578 C40.6194886,18.2627797 40.3228977,18.8912328 40.8666477,18.6698266 C41.1990341,19.5316078 41.7359659,20.1975297 42.1467614,21.0405766 C42.0223295,20.9366859 41.5416477,21.0967797 41.6541477,21.2313266 L42.0871023,21.2245141 L41.9473295,21.3267016 C42.0802841,21.3931234 42.4126705,21.3794984 42.5336932,21.1785297 C44.0677841,23.0707016 43.8888068,25.6901078 44.9353977,27.7083109 C44.9200568,28.3061078 45.4228977,28.9226391 45.7672159,29.4148422 C45.6922159,31.3359672 45.6291477,33.0203578 46.8121023,34.4441703 C46.8121023,34.4441703 45.2490341,34.8001234 44.645625,34.2653422" id="Fill-87" fill="#155471" mask="url(#mask-6)"></path>
                </g>
                <path d="M4.23920455,80.8664187 C4.15568182,80.8306531 4.38238636,80.8408719 4.43522727,80.8408719 C4.43522727,80.9107 4.65511364,81.0537625 4.48806818,81.0452469 C4.48977273,80.978825 4.34829545,80.93795 4.23920455,80.8664187" id="Fill-90" fill="#F27123"></path>
                <path d="M4.86852273,79.6922844 C5.11738636,79.8080969 5.21965909,80.1470188 5.19068182,80.313925 L4.86852273,79.6922844 Z" id="Fill-92" fill="#F27123"></path>
                <path d="M6.36,78.9621547 C6.61227273,78.9502328 6.71965909,79.0217641 6.66,79.1494984 C6.52363636,79.1069203 6.47079545,79.0370922 6.36,78.9621547" id="Fill-94" fill="#F27123"></path>
                <path d="M5.81386364,78.6526969 C5.84454545,78.5556187 6.01159091,78.5675406 6.17693182,78.5811656 C5.95534091,78.4977125 6.22636364,78.8502594 5.81386364,78.6526969" id="Fill-96" fill="#F27123"></path>
                <path d="M7.55676136,76.5287297 C7.56357955,76.4623078 7.40846591,76.2477141 7.71017045,76.3141359 C7.49028409,76.2885891 7.90448864,76.7348078 7.55676136,76.5287297" id="Fill-98" fill="#F27123"></path>
                <path d="M7.67335227,75.2498531 C7.70744318,75.2243062 7.76028409,75.2277125 7.70914773,75.1561813 C7.85232955,75.1425563 8.000625,75.2941344 8.000625,75.3605563 L7.67335227,75.2498531 Z" id="Fill-100" fill="#F27123"></path>
                <polygon id="Fill-102" fill="#F27123" points="20.3307955 60.3192375 20.2302273 60.4588938 20.2404545 60.1863938"></polygon>
                <path d="M27.7367045,64.1229969 C27.9480682,64.0872312 27.6190909,64.3648406 27.6054545,64.4074187 C27.5014773,64.3495125 27.8730682,64.1979344 27.7367045,64.1229969" id="Fill-104" fill="#F27123"></path>
                <polygon id="Fill-106" fill="#F27123" points="32.1594886 67.2397156 32.1305114 67.2107625 32.5890341 66.8922781"></polygon>
                <path d="M28.0646591,36.8179859 C26.6464773,36.5284547 27.8890909,35.6666734 26.8271591,35.4554859 C26.7521591,35.4265328 27.5567045,35.1744703 27.3368182,35.1131578 C26.0993182,35.1284859 26.4470455,34.2837359 26.5714773,33.2124703 L26.7640909,33.0949547 C26.7896591,32.8871734 26.1521591,33.2737828 26.1402273,33.1136891 C26.2442045,33.0063922 26.3175,32.9978766 26.4368182,32.8326734 C26.1027273,33.1205016 26.1265909,32.8020172 25.8657955,33.0029859 C25.9459091,32.8394859 26.1879545,32.5789078 26.26125,32.3898609 L25.8709091,32.7219703 C24.9436364,33.5207359 25.5214773,32.3626109 24.9317045,32.6930172 L25.1294318,32.4392516 C24.3947727,32.7509234 24.0027273,32.4852359 23.5015909,32.5210016 C23.5834091,32.3626109 23.7265909,32.0730797 23.7777273,31.8772203 C23.5493182,32.3575016 23.3839773,32.4068922 23.2373864,32.4716109 C23.3686364,31.9470484 22.8828409,32.8905797 22.8572727,32.5755016 L22.905,32.4613922 C22.6459091,32.9825484 22.8538636,32.1071422 22.5913636,32.7424078 L22.6425,32.3132203 C22.4140909,33.0472672 22.6032955,31.8908453 22.4260227,32.2467984 L22.3953409,32.4000797 C22.2811364,32.5618766 22.3254545,32.1735641 22.2282955,32.2825641 L22.2385227,32.1940016 C22.0425,32.3438766 22.0084091,31.9385328 21.9214773,32.5244078 C21.9334091,32.0424234 22.1192045,32.3200328 22.1379545,31.6251578 C21.4527273,32.1922984 20.9328409,31.9691891 20.3584091,32.0781891 C20.2714773,31.8431578 20.2203409,31.7750328 20.1811364,31.5502203 C20.1351136,31.6745484 19.9646591,31.6796578 19.9561364,31.9896266 C19.9748864,31.9725953 19.8743182,31.6881734 19.8385227,31.6626266 C19.6902273,31.4514391 19.8265909,32.3166266 19.6697727,32.0713766 C19.6834091,31.8993609 19.6697727,31.7171266 19.6135227,31.4957203 C19.5947727,31.9760016 19.4584091,31.9436422 19.3782955,32.1173609 C19.3714773,32.0185797 19.3885227,31.9521578 19.3407955,31.7665172 C19.3390909,32.3166266 19.0817045,31.7256422 19.0561364,32.0781891 L19.0067045,31.7358609 C18.7067045,31.3850172 19.1498864,32.4460641 18.9317045,32.2467984 C18.9368182,32.1343922 18.8839773,32.0066578 18.8498864,31.8704078 C18.8925,32.5175953 18.6078409,32.3575016 18.5567045,32.6214859 C18.5481818,32.5755016 18.5106818,32.4852359 18.5106818,32.4852359 C18.4067045,32.6231891 18.1782955,32.5192984 18.1459091,32.8377828 C18.0231818,32.7270797 17.7998864,32.0679703 17.6959091,32.2604234 C18.0146591,32.8786578 17.5731818,32.6368141 18.0334091,33.2857047 C17.8646591,33.2312047 17.5390909,33.1085797 17.6021591,33.3725641 C17.5118182,33.1136891 17.0873864,32.7015328 17.1538636,32.5806109 L16.8470455,32.2825641 C16.7038636,32.0356109 16.9834091,32.3030016 16.7635227,32.0219859 C16.7209091,32.0884078 16.7157955,32.4290328 16.6032955,32.3728297 C16.7464773,32.7952047 17.1453409,33.4883766 17.0703409,33.6501734 C16.9646591,33.3912984 16.5521591,33.0830328 16.5231818,32.9570016 L17.1828409,34.1151266 C17.1675,34.1713297 16.8078409,33.7063766 16.8760227,33.8971266 C17.0004545,34.0299703 17.055,34.1406734 17.1419318,34.2650016 C17.0720455,34.2224234 17.1317045,34.5340953 16.6288636,34.0725484 C16.4226136,33.9022359 16.5896591,33.9039391 16.3731818,33.7779078 C16.3067045,33.8613609 16.4703409,34.0265641 16.4106818,34.1083141 L16.3425,34.0487047 C16.2180682,34.0316734 16.4243182,34.3859234 16.7567045,34.5834859 C16.8027273,34.5681578 16.4379545,34.3229078 16.6322727,34.4080641 C16.8947727,34.7061109 16.9135227,34.8491734 16.8589773,34.9155953 C16.7959091,34.8236266 16.6527273,34.7129234 16.51125,34.5800797 C16.8317045,35.0075641 16.8947727,35.1966109 17.0311364,35.4282359 C17.3004545,35.6172828 16.5709091,35.0518453 16.7226136,35.1335953 C16.2589773,35.0297047 17.1010227,35.7484234 16.4652273,35.5185016 C16.4277273,35.4708141 16.8760227,35.7365016 16.7959091,35.6905172 C16.7226136,35.7296891 16.3101136,35.5065797 16.4345455,35.6309078 C16.1873864,35.5065797 16.4788636,35.7245797 16.5282955,35.8012203 C16.6936364,35.9085172 16.39875,35.7535328 16.3970455,35.7041422 C16.5419318,35.8744547 16.8998864,36.2678766 16.4635227,36.2627672 C16.6356818,36.3223766 17.0720455,36.5522984 17.0430682,36.5676266 L16.6390909,36.4330797 C16.3817045,36.3905016 16.6339773,36.5454859 16.2777273,36.4552203 C16.7515909,36.6698141 15.9572727,36.0583922 16.3067045,36.2661734 C15.9555682,36.1912359 16.9118182,36.5914703 16.3595455,36.4075328 C16.3527273,36.4841734 16.7839773,36.6493766 16.3834091,36.6221266 C16.4532955,36.6221266 15.8140909,36.4279703 15.83625,36.4995016 C15.9010227,36.6272359 16.0322727,36.5761422 16.1669318,36.6885484 L16.3339773,36.7702984 C16.7413636,36.8435328 16.2726136,36.8452359 16.7328409,36.8844078 C16.3953409,36.8469391 16.9339773,37.0359859 16.24875,36.9440172 L15.7084091,36.8622672 C15.7425,36.9201734 16.2692045,37.0053297 16.5061364,37.0581266 C16.4532955,37.0581266 16.3459091,37.0598297 16.2589773,37.0479078 C17.0890909,37.1245484 16.1754545,37.1449859 16.8095455,37.2250328 C16.4959091,37.2931578 16.7635227,37.4123766 16.2623864,37.4685797 C16.5231818,37.5281891 16.8317045,37.5571422 16.66125,37.6371891 C16.5794318,37.6337828 16.5555682,37.6150484 16.3782955,37.6269703 C16.1379545,37.6967984 16.3595455,37.6899859 16.4976136,37.7138297 C16.3731818,37.7155328 16.02375,37.8671109 15.7407955,37.9846266 C15.9913636,38.0203922 16.4311364,37.9130953 16.7021591,37.8722203 C15.9010227,38.0936266 17.2203409,37.9301266 16.5351136,38.1617516 C16.4175,38.1719703 16.1055682,38.1617516 15.93,38.2690484 C15.1595455,38.5500641 16.5657955,38.2452047 16.2197727,38.4444703 L16.8623864,38.2196578 C16.47375,38.3882672 17.28,38.2111422 16.6203409,38.4308453 C16.8623864,38.3746422 16.4464773,38.6198922 17.0635227,38.3695328 C16.5726136,38.7425172 17.4811364,38.5211109 16.4993182,39.1700016 C16.6101136,39.1376422 16.5453409,39.2483453 16.8334091,39.0644078 C17.1351136,38.8447047 16.5743182,39.1478609 16.7856818,39.0116109 C16.8146591,39.0218297 16.9765909,38.9315641 17.055,38.8906891 C16.9493182,39.0030953 16.9339773,39.0678141 16.4277273,39.3045484 C16.1481818,39.6349547 17.4589773,38.8208609 17.3021591,39.0678141 C17.0703409,39.2176891 16.9902273,39.2858141 17.0464773,39.2994391 L17.4640909,39.0899547 C17.4180682,39.2245016 16.9970455,39.5072203 16.6203409,39.7916422 C16.7277273,39.7865328 16.7601136,39.8512516 17.0464773,39.6519859 L16.6459091,40.0760641 C16.9322727,39.7643922 16.8947727,39.9295953 16.99875,39.8750953 L16.8930682,39.9261891 C16.7498864,40.0658453 16.8896591,40.0385953 16.9578409,40.0232672 C17.1640909,39.8222984 17.2084091,39.6979703 17.2493182,39.6196266 C17.4231818,39.5038141 17.4163636,39.5651266 17.6157955,39.4254703 C17.2697727,39.7252203 17.4317045,39.7064859 17.4248864,39.7677984 C17.3839773,39.8767984 17.7521591,39.5225484 17.74875,39.5412828 C17.5817045,39.7081891 17.7675,39.6213297 17.5118182,39.8342203 C17.4470455,39.8767984 17.6498864,39.6434703 17.48625,39.7712047 C17.3788636,39.9176734 17.0890909,40.2089078 17.3447727,40.0471109 C17.5356818,39.9227828 17.9635227,39.3897047 17.8203409,39.6622047 C17.73,39.7269234 17.6004545,39.8580641 17.4743182,39.9602516 L17.3720455,40.2037984 L17.655,39.8989391 C17.5902273,39.9875016 17.56125,40.0079391 17.5271591,40.0505172 C17.8322727,39.7541734 17.7265909,40.0351891 18.0589773,39.6690172 C18.1186364,39.6587984 17.9447727,39.9398141 17.9498864,40.0028297 L17.9209091,40.0266734 C17.8084091,40.2497828 17.9703409,40.1663297 18.1680682,39.9636578 L18.1135227,40.0351891 C18.1152273,40.0760641 18.2072727,40.0624391 18.3709091,39.8802047 C18.2430682,40.1799547 17.5032955,41.1933141 17.8680682,40.8118141 C17.9430682,40.8526891 18.3726136,40.2412672 18.4953409,39.9977203 C18.4373864,40.3315328 18.9129545,39.7626891 18.705,40.3894391 C18.7953409,40.2497828 18.83625,40.1492984 18.9129545,40.0760641 C19.0152273,40.2974703 19.4038636,39.7899391 19.2538636,40.5972203 C19.1396591,40.7487984 19.1038636,40.9872359 19.0271591,41.2120484 C19.2010227,40.8714234 18.9589773,41.5918453 19.1873864,40.9923453 C19.3067045,40.6363922 19.3697727,40.4643766 19.3714773,40.3110953 C19.5453409,40.1441891 19.6817045,40.1782516 19.6493182,40.5325016 C19.6646591,40.3570797 19.7192045,40.2531891 19.7703409,40.1492984 C19.6015909,40.7249547 19.66125,40.8373609 19.77375,40.6466109 L19.8675,40.2957672 L19.8180682,40.6721578 C19.8692045,40.5665641 20.0123864,39.9330016 19.9885227,40.2906578 C19.9629545,40.4303141 19.9339773,40.5733766 19.9254545,40.6789703 C20.0515909,40.4064703 20.2118182,39.9295953 20.2220455,40.2310484 L20.1964773,40.7590172 C20.2356818,40.7062203 20.3277273,40.3911422 20.29875,40.2344547 C20.3652273,40.5597516 20.4368182,40.6074391 20.4317045,41.0689859 C20.7538636,39.9653609 20.9498864,39.9738766 21.1663636,40.0011266 L21.1748864,40.2736266 C21.2498864,40.5239859 21.1748864,39.7950484 21.2243182,39.9789859 C21.2226136,40.2412672 21.3129545,40.5427203 21.2856818,40.8680172 C21.405,41.1439234 21.3657955,40.3809234 21.405,40.2531891 C21.3760227,39.8989391 21.3845455,40.4848141 21.3504545,40.0317828 C21.3436364,39.9040484 21.4953409,40.3008766 21.4373864,39.7626891 C21.4851136,39.9721734 21.5209091,40.3707047 21.53625,40.5887047 L21.555,40.3247203 C21.7203409,40.9497672 21.53625,41.4624078 21.7084091,42.2356266 L21.7646591,42.1436578 C21.91125,42.7039859 21.6521591,42.7976578 21.8635227,42.9747828 C21.9163636,42.7005797 21.8567045,41.9171422 21.76125,41.6804078 C21.8788636,41.5254234 21.63,40.3962516 21.7578409,40.4371266 C21.8481818,40.7487984 21.6726136,40.5154703 21.7680682,40.9565797 C21.9095455,41.3891734 21.8515909,40.7062203 21.9265909,40.8356578 C21.8328409,40.6534234 21.7765909,40.0982047 21.7817045,39.9926109 C21.8907955,40.2242359 21.8498864,40.5069547 21.9453409,40.5359078 C21.8942045,40.2225328 21.9078409,39.9738766 21.8004545,39.7763141 C21.6640909,39.0746266 21.9197727,39.9483297 21.8226136,39.3999234 C21.9760227,39.8767984 22.0220455,40.5461266 22.1771591,40.7624234 C22.0476136,40.2991734 22.1192045,40.0982047 21.8839773,39.4186578 C21.94875,39.5480953 22.0595455,39.9108609 22.1123864,40.2020953 C22.2504545,40.4728922 21.9726136,39.3300953 22.2709091,40.2395641 L22.13625,39.7643922 C22.2027273,39.9159703 22.2589773,40.0266734 22.3680682,40.2702203 C22.4192045,40.2668141 22.2811364,39.6111109 22.5351136,40.3110953 C22.5282955,40.2446734 22.6254545,40.2208297 22.4055682,39.7609859 C22.24875,39.4970016 22.47375,40.1356734 22.2044318,39.4918922 C22.4413636,40.0215641 22.2555682,39.4016266 22.2044318,39.2074703 L22.3152273,39.4748609 C22.2879545,39.3590484 22.3476136,39.3999234 22.2368182,39.1069859 C22.2879545,39.2653766 22.3697727,39.4442047 22.4106818,39.5004078 L22.2538636,39.0899547 C22.2231818,38.8583297 22.5777273,39.7865328 22.5913636,39.6349547 L22.6782955,39.9738766 C22.6595455,39.9006422 22.8538636,40.2617047 22.8368182,40.1186422 C22.6817045,39.7490641 22.4959091,39.3045484 22.3697727,39.0218297 C22.32375,38.8464078 22.5845455,39.4169547 22.4328409,39.0354547 L22.6032955,39.4867828 C22.6527273,39.6111109 22.9271591,40.0658453 22.9868182,40.0266734 C22.9646591,39.8836109 22.7345455,39.3556422 22.5811364,39.1836266 C22.6015909,39.1682984 22.7567045,39.3692672 22.8760227,39.6332516 C22.8675,39.4833766 22.6595455,39.2568609 22.58625,39.0218297 C22.7311364,39.2432359 22.9953409,39.5600172 23.2322727,39.8495484 L23.5203409,40.4626734 L23.5663636,40.4422359 C23.7913636,40.9429547 23.8084091,40.7675328 24.0709091,41.2767672 C24.1493182,41.3244547 24.0913636,41.1320016 24.0419318,40.9838297 C23.4743182,40.2821422 23.4589773,39.8750953 22.9680682,39.2108766 C22.9084091,38.9724391 24.18,40.8118141 23.52375,39.6877516 C23.3805682,39.5259547 23.0464773,38.9911734 23.1351136,39.2210953 C23.2442045,39.2551578 22.6697727,38.5364391 22.9271591,38.7714703 C23.0942045,39.0712203 23.4998864,39.3931109 23.7334091,39.8325172 C23.5680682,39.6111109 23.56125,39.6945641 23.5953409,39.7660953 C23.8135227,40.0011266 24.0896591,40.4371266 24.1663636,40.3826266 C24.1646591,40.2872516 24.2157955,40.2310484 23.9311364,39.9040484 C23.6311364,39.5412828 23.9038636,39.9875016 23.6260227,39.5974859 C23.5936364,39.4220641 24.0777273,39.9585484 23.5578409,39.3011422 C23.5561364,39.3828922 23.2339773,39.0167203 23.0260227,38.7663609 L22.9390909,38.5909391 L23.1351136,38.8344859 C23.355,38.9622203 22.7856818,38.3984859 22.8777273,38.4121109 L23.3226136,38.8395953 C23.6754545,39.2449391 23.0959091,38.7544391 23.6805682,39.3897047 C23.7521591,39.3709703 23.4555682,39.0286422 23.6464773,39.1529703 L23.7385227,39.3113609 C23.7675,39.3181734 24.5942045,40.1271578 24.1868182,39.5651266 C24.0317045,39.3437203 23.9720455,39.3386109 23.7419318,39.1120953 C23.7334091,38.9724391 23.5032955,38.7305953 23.5015909,38.6624703 C23.97375,39.0848453 23.6209091,38.6301109 24.0709091,39.0967672 C23.7606818,38.8821734 23.7061364,38.9877672 24.1186364,39.4425016 C24.6879545,39.9330016 23.9822727,39.4288766 24.5038636,39.9926109 C24.5839773,39.9295953 25.1140909,40.4507516 25.4788636,40.7726422 C25.53,40.7675328 25.4021591,40.6006266 25.3629545,40.5342047 C25.0373864,40.2106109 25.0118182,40.2480797 24.6692045,39.9244859 C24.8413636,39.9210797 24.7339773,39.6622047 24.4288636,39.3420172 C24.6248864,39.4612359 24.9760227,39.7558766 24.9743182,39.8205953 C24.9828409,39.6349547 25.1106818,39.5566109 25.2845455,39.5089234 C24.6231818,39.1614859 25.21125,39.2909234 24.6623864,38.9996891 C24.4868182,38.9639234 24.0317045,38.6982359 23.7675,38.4887516 C23.8169318,38.4904547 24.0368182,38.6726891 24.1748864,38.7493297 C23.8493182,38.4955641 24.7578409,39.0490797 24.2328409,38.6692828 C24.3913636,38.8787672 24.9930682,39.1734078 25.4788636,39.5004078 C25.2521591,39.2398297 25.8282955,39.7252203 25.8845455,39.6349547 C25.66125,39.3726734 25.4993182,39.1529703 25.4430682,39.0099078 C26.0328409,39.1495641 25.5640909,38.6999391 25.5845455,38.6062672 C25.8845455,38.6522516 26.4913636,38.9162359 26.6277273,38.8787672 C26.6464773,38.7885016 25.9288636,38.7101578 26.2578409,38.6846109 L26.3805682,38.7374078 C26.2459091,38.6607672 26.8970455,38.6215953 25.9902273,38.3422828 L26.6703409,38.5636891 C26.7419318,38.5568766 26.5919318,38.4904547 26.5254545,38.4563922 C26.7504545,38.5125953 26.9652273,38.5313297 27.1015909,38.6147828 C27.6197727,38.6437359 27.0845455,38.4035953 27.0675,38.3048141 L26.6464773,38.2809703 C26.3345455,38.0646734 26.7589773,38.0374234 26.6294318,37.8637047 L27.0402273,37.9182047 L26.805,37.7955797 C27.2021591,37.8620016 27.4731818,37.7887672 27.1425,37.7070172 L28.1209091,38.0902203 C27.8703409,38.1396109 27.6351136,37.9420484 27.2226136,37.9437516 C26.8629545,37.9420484 26.9601136,38.0953297 27.3504545,38.1890016 C27.4015909,38.1327984 27.3146591,38.1174703 27.1697727,38.0510484 C27.7459091,38.1089547 27.7118182,38.2009234 28.0868182,38.3184391 C28.0663636,38.2758609 28.2470455,38.2503141 28.0663636,38.2162516 C28.3373864,38.3286578 28.3714773,38.4155172 28.3697727,38.5449547 C28.1584091,38.4189234 28.0118182,38.5228141 27.855,38.4580953 C28.3442045,38.5602828 28.5061364,38.7237828 28.3135227,38.8412984 C27.7101136,38.7953141 28.58625,39.2176891 28.3663636,39.3590484 C27.8993182,39.1274234 27.5328409,38.9264547 27.3623864,38.7816891 C27.0845455,38.8038297 27.3419318,38.8923922 27.0623864,38.9043141 C27.4135227,39.0644078 27.9589773,39.2790016 28.1294318,39.5021109 L27.7714773,39.3794859 C27.91125,39.5651266 28.4328409,39.7729078 28.2760227,39.9040484 C28.0169318,40.1339703 27.83625,40.3758141 27.6845455,40.5495328 L27.3521591,40.3672984 C27.9896591,40.8833453 27.3947727,40.8731266 27.6027273,41.2188609 C27.1765909,41.2614391 27.4782955,41.9495016 26.8868182,41.6446422 C26.7726136,42.2015641 26.6396591,42.7840328 26.0959091,42.9764859 L25.8282955,42.4876891 C26.0055682,42.8623766 25.58625,42.2713922 25.5675,42.3855016 C25.9152273,42.6767359 25.8146591,42.9168766 25.9527273,43.2353609 C25.5044318,43.0173609 25.5436364,43.6032359 25.5214773,44.0341266 L25.3254545,43.7105328 C25.4754545,44.4309547 24.9197727,44.0102828 24.6351136,44.0170953 C24.5413636,43.8859547 24.3504545,43.5845016 24.3010227,43.6543297 C24.4169318,44.2776734 24.33,44.2708609 24.2652273,44.7221891 C24.1067045,44.7783922 23.7964773,44.7051578 23.5731818,44.5212203 C23.2186364,45.5277672 22.4618182,45.1564859 21.8754545,45.6946734 L21.7851136,45.2552672 C21.2072727,46.2992828 20.3856818,45.3915172 19.8129545,45.8087828 L19.9493182,45.0560016 C19.8180682,44.8073453 19.5555682,45.2195016 19.5163636,45.7559859 C19.3817045,45.5107359 19.0101136,46.0778766 19.0203409,45.4221734 C18.8788636,45.2399391 18.7373864,45.7134078 18.5635227,45.7730172 C18.27375,45.3966266 18.1390909,45.4272828 17.7589773,45.4630484 L17.8271591,45.5328766 C17.9157955,45.3847047 18.0146591,45.0781422 17.9532955,45.0066109 C17.7657955,45.1735172 17.5868182,44.6864234 17.3907955,45.5771578 C17.2476136,44.9555172 16.3953409,45.5941891 16.3731818,44.7954234 C16.28625,45.0287516 16.1805682,45.0304547 16.0646591,45.1598922 C15.7373864,45.0236422 15.7118182,44.4071109 15.2635227,44.5927516 C15.2890909,44.4582047 15.5686364,44.2895953 15.4714773,44.1908141 C15.3538636,44.2231734 15.2890909,44.4582047 15.1271591,44.5127047 C14.3839773,44.5365484 14.4964773,43.4874234 14.1078409,43.2012984 C13.1038636,42.9134703 12.7101136,41.9273609 12.2209091,41.1745797 L12.3879545,41.0996422 C11.5817045,41.1388141 12.7697727,40.1782516 11.7027273,40.3451578 C11.8390909,40.2174234 11.6890909,40.0505172 12.0385227,39.9875016 C11.4947727,39.8972359 12.255,39.2415328 11.5885227,39.0524859 C11.5765909,39.0882516 11.6157955,39.1001734 11.6959091,39.1189078 C12.0436364,38.6982359 11.4589773,38.4819391 11.7777273,38.0680797 C11.8629545,38.0987359 11.9260227,38.1583453 12.1101136,38.1481266 C12.4442045,37.9914391 11.3072727,37.8807359 12.18,37.7530016 C12.1646591,37.6763609 11.7317045,37.7155328 11.7640909,37.7666266 C12.0436364,36.9934078 11.6004545,36.1333297 11.6004545,35.2187516 C12.2925,34.7844547 13.0339773,35.6002516 12.5481818,34.9786109 C12.7220455,34.9990484 12.2379545,34.8457672 12.4152273,34.9002672 C12.2413636,34.6447984 13.4260227,34.9871266 13.0322727,34.7231422 C12.5123864,34.5681578 12.7731818,34.5357984 12.4731818,34.4080641 C12.9214773,34.2087984 13.3680682,34.3722984 13.13625,33.9669547 L13.3817045,34.1151266 C12.8226136,33.4781578 13.3817045,33.3827828 12.7544318,32.6368141 C13.6663636,31.0341734 14.7981818,29.3617047 16.5146591,28.5527203 C18.2277273,27.9975016 20.0123864,27.2719703 21.8072727,27.9344859 C22.1584091,28.7162203 22.1567045,28.6957828 22.6476136,28.4420172 C22.6118182,28.5595328 22.5794318,28.5867828 22.5879545,28.7008922 C22.7123864,28.0928766 22.905,28.6838609 23.055,28.1303453 C23.67375,28.4096578 24.3163636,28.3824078 24.9692045,28.6361734 C24.8413636,28.6515016 24.6146591,29.0977203 24.7407955,29.1130484 L25.0101136,28.8047828 L24.9640909,28.9733922 C25.0782955,28.9222984 25.2879545,28.6872672 25.2794318,28.4675641 C27.2635227,28.7060016 27.9998864,30.9132516 29.1231818,32.1207672 C29.14875,32.6214859 29.6515909,32.9944703 29.9993182,33.3487203 C29.9004545,35.0194859 29.4402273,36.0856422 30.0743182,37.3493609 C30.0743182,37.3476578 28.47375,37.1688297 28.0646591,36.8179859" id="Fill-108" fill="#155471"></path>
                <polygon id="Fill-110" fill="#F27123" points="16.6505114 38.2118234 16.7953977 38.2118234 16.5346023 38.2850578"></polygon>
                <path d="M17.2496591,35.2861953 C17.1473864,35.1465391 17.4695455,35.4258516 17.5053409,35.4462891 C17.5019318,35.4922734 17.2564773,35.2248828 17.2496591,35.2861953" id="Fill-112" fill="#F27123"></path>
                <polygon id="Fill-114" fill="#F27123" points="18.0719318 32.9428656 18.0582955 32.9581938 17.8128409 32.4557719"></polygon>
            </g>
        </g>
    </g>
</svg>